<?xml version="1.0" encoding="UTF-8" standalone="no"?>
<svg
   xmlns:dc="http://purl.org/dc/elements/1.1/"
   xmlns:cc="http://creativecommons.org/ns#"
   xmlns:rdf="http://www.w3.org/1999/02/22-rdf-syntax-ns#"
   xmlns:svg="http://www.w3.org/2000/svg"
   xmlns="http://www.w3.org/2000/svg"
   xmlns:sodipodi="http://sodipodi.sourceforge.net/DTD/sodipodi-0.dtd"
   xmlns:inkscape="http://www.inkscape.org/namespaces/inkscape"
   id="svg2"
   height="318"
   width="1110"
   version="1.1"
   inkscape:version="1.0.1 (3bc2e813f5, 2020-09-07)"
   sodipodi:docname="logo.svg"
   inkscape:export-xdpi="9"
   inkscape:export-ydpi="9">
  <defs
     id="defs3624" />
  <sodipodi:namedview
     pagecolor="#ffffff"
     bordercolor="#666666"
     borderopacity="1"
     objecttolerance="10"
     gridtolerance="10"
     guidetolerance="10"
     inkscape:pageopacity="0"
     inkscape:pageshadow="2"
     inkscape:window-width="1920"
     inkscape:window-height="1011"
     id="namedview3622"
     showgrid="false"
     inkscape:zoom="0.72200001"
     inkscape:cx="453.81295"
     inkscape:cy="138.60412"
     inkscape:window-x="0"
     inkscape:window-y="20"
     inkscape:window-maximized="1"
     inkscape:current-layer="svg2"
     inkscape:document-rotation="0" />
  <metadata
     id="metadata7">
    <rdf:RDF>
      <cc:Work
         rdf:about="">
        <dc:format>image/svg+xml</dc:format>
        <dc:type
           rdf:resource="http://purl.org/dc/dcmitype/StillImage" />
        <dc:title></dc:title>
      </cc:Work>
    </rdf:RDF>
  </metadata>
  <g
     id="g917"
     transform="translate(-34.582105,12.094163)">
    <flowRoot
       font-style="normal"
       line-height="125%"
       font-size="40px"
       xml:space="preserve"
       font-weight="normal"
       style="font-style:normal;font-weight:normal;line-height:0.01%;font-family:sans-serif;letter-spacing:0px;word-spacing:0px;opacity:0.503623;fill:#ff0000;fill-opacity:0.823232"
       id="flowRoot3004-3"
       transform="matrix(1.0905004,0,0,1.0905004,86.36818,-202.6218)"><flowRegion
         id="flowRegion3006-6"
         style="font-family:sans-serif;fill:#ff0000;fill-opacity:0.823232"><rect
           height="63.639999"
           x="422.23999"
           width="93.944"
           y="353.34"
           id="rect3008-7"
           style="fill:#ff0000;fill-opacity:0.82323235" /></flowRegion><flowPara
         id="flowPara3010-5"
         style="font-size:40px;line-height:1.25;font-family:sans-serif;fill:#ff0000;fill-opacity:0.823232"> </flowPara></flowRoot>
    <g
       id="g3734"
       transform="translate(-260.42399,-482.10027)">
      <flowRoot
         xml:space="preserve"
         id="flowRoot3792-3"
         style="font-style:normal;font-weight:normal;line-height:0.01%;font-family:sans-serif;-inkscape-font-specification:Sans;text-align:start;letter-spacing:0px;word-spacing:0px;text-anchor:start;opacity:0.503623;fill:#ff0000;fill-opacity:0.823232;stroke:none"
         transform="matrix(1.0905004,0,0,1.0905004,304.7444,488.69263)"><flowRegion
           id="flowRegion3794-5"
           style="font-family:sans-serif;fill:#ff0000;fill-opacity:0.823232"><rect
             id="rect3796-6"
             width="152.35457"
             height="36.011082"
             x="90.027702"
             y="75.623268"
             style="fill:#ff0000;fill-opacity:0.82323235" /></flowRegion><flowPara
           id="flowPara3798-2"
           style="font-size:18px;line-height:1.25;font-family:sans-serif;fill:#ff0000;fill-opacity:0.823232"> </flowPara></flowRoot>
      <path
         style="font-style:normal;font-weight:normal;font-size:40px;line-height:125%;font-family:Sans;letter-spacing:0px;word-spacing:0px;fill:#000000;stroke-width:1.10239"
         id="path3080-9"
         d="m 399.09708,525.01388 v 50.14974 h -20.63244 v -50.14974 h -28.45855 v 129.99814 h 28.45855 v -50.63664 h 20.63244 v 50.63664 h 28.6957 V 525.01388 Z M 412.37757,592.69 v 46.98495 l -10.90894,11.19833 v -47.2284 z m 0,-52.5842 v 47.2284 l -10.90894,-11.19832 v -47.2284 z m -9.24886,-12.90244 H 423.524 l -10.19748,10.46798 z m 3.08301,63.78269 h 4.50593 l -2.37154,2.43446 z m 0.47431,3.89513 -3.08301,3.40823 -7.35163,-7.30319 h 6.64016 z m -2.84586,57.69656 h -0.71146 l 0.47431,-0.4869 z m 4.50594,-5.3558 5.45455,5.3558 h -6.64016 l -2.13439,-1.94758 z m 4.98024,-5.11235 10.19748,10.46797 h -6.64016 l -6.87732,-7.05991 z m 1.18576,-8.76387 10.90895,11.19832 v 6.57302 l -10.90895,-10.95488 z m 0,-10.22454 10.90895,11.19832 v 6.81647 l -10.90895,-11.19831 z m 0,-9.98109 10.90895,11.19832 v 6.57302 l -10.90895,-10.95488 z m 0,-10.22454 10.90895,11.19832 v 6.8163 l -10.90895,-11.19832 z m 0,-9.98109 10.90895,11.19832 v 6.57302 l -10.90895,-10.95487 z m 0,-10.22454 10.90895,11.19832 v 6.8163 l -10.90895,-11.19832 z m 0,-9.98109 10.90895,11.19832 v 6.57302 L 414.51211,579.5453 Z m 0,-10.22453 10.90895,11.19831 v 6.8163 L 414.51211,569.3206 Z m 0,-9.9811 10.90895,11.19832 v 6.57303 l -10.90895,-10.95488 z m 0,-10.22453 10.90895,11.19831 v 6.81631 l -10.90895,-11.19832 z m 3.79447,-6.32958 7.11448,7.54664 v 6.57302 l -10.43464,-10.71143 z m 4.74309,-4.86891 2.37155,2.19101 v 6.8163 l -5.45456,-5.84269 z m 2.37155,-2.43445 v 1.46065 l -0.71147,-0.73032 z m -14.94057,59.88756 h -43.39928 l 10.67179,-10.95487 h 21.81821 z m -16.3635,13.63277 h -6.64016 l -10.90895,-11.19832 h 6.64016 z m -17.78659,-68.89335 v 6.8163 l -5.69171,-5.59924 3.32016,-3.40824 z m 0,10.22454 v 6.57302 l -10.67179,-10.71143 3.32016,-3.40823 z m 0,16.79756 -10.90895,-11.19832 v -6.8163 l 10.90895,11.19832 z m 0,3.40823 v 6.57303 L 365.42161,559.3412 v -6.81631 z m 0,70.59747 v 6.81647 l -10.90895,-11.19831 v -6.81631 z m -9.01171,-49.41941 -1.89724,1.94756 v -4.13857 z m -1.89724,-5.3558 v -6.8163 l 6.87732,7.05975 -3.32016,3.40823 z m 0,-10.22453 v -6.81631 l 10.90895,11.19832 v 2.19101 l -2.37155,2.19101 z m 10.90895,-40.65538 v 1.46065 l -0.71147,-0.73032 z m -22.29253,-1.46066 h 20.39529 l -10.19748,10.46798 z m 9.01171,112.47008 -10.67179,11.19831 V 528.90868 l 10.67179,11.19832 z m -8.30025,12.90244 h -0.71144 l 0.23715,-0.4869 z m 4.50594,-5.3558 5.2174,5.3558 h -6.64016 l -1.89724,-1.94758 z m 4.98025,-5.11235 10.19748,10.46797 h -6.64017 l -6.87731,-7.05991 z m 1.18575,-8.76387 10.90895,11.19832 v 6.57302 l -10.90895,-10.95488 z m 0,-20.20597 10.90895,11.19832 v 6.57303 l -10.90895,-10.95488 z m 0,-10.22453 10.90895,11.19831 v 6.8163 l -10.90895,-11.19831 z m 0,-3.16479 v -6.81631 l 10.90895,11.19832 v 6.57303 z m 1.42291,-8.76387 h 6.40318 l 10.90894,11.19832 h -6.64016 z m 19.68383,0 h 6.40317 l 9.01171,9.00731 -1.89724,2.19101 h -2.84585 z"
         inkscape:connector-curvature="0" />
      <path
         style="font-style:normal;font-weight:normal;font-size:40px;line-height:125%;font-family:Sans;letter-spacing:0px;word-spacing:0px;fill:#000000;stroke-width:1.10239"
         id="path3082-1"
         d="m 519.9619,543.02883 c -0.12368,-5.11725 -1.833,-9.3674 -5.12846,-12.75028 -3.29546,-3.38271 -7.43578,-5.13754 -12.4208,-5.2645 h -42.68782 c -4.98519,0.12693 -9.12535,1.88179 -12.42081,5.2645 -3.29546,3.38288 -5.00495,7.63303 -5.12846,12.75028 v 111.98319 h 28.45855 v -30.18723 h 20.86959 v 30.18723 h 28.45854 z m -15.41487,69.86713 v 27.02244 l -10.90895,11.19832 v -27.26588 z m -18.26091,9.49421 h -6.64032 l -10.90895,-11.19832 h 6.64016 z m -16.12634,-24.58799 h 21.58107 l 10.90893,11.19832 h -43.39927 z m -23.24114,55.01866 h -0.71145 l 0.23715,-0.4869 z m 4.50594,-5.59925 5.21739,5.59925 h -6.64016 l -1.89724,-2.19101 z m 4.98024,-5.11235 10.19747,10.71143 h -6.64015 l -6.87748,-7.30336 z m 41.97964,-30.93615 h 4.50594 l -2.37155,2.43445 z m 6.16602,-69.1368 v 65.4868 l -10.90894,-11.19832 v -43.08983 z m -5.92886,-1.21721 h 4.03162 l -2.13439,1.94756 z m 0.47431,3.65168 -3.32016,3.40823 -7.11464,-7.05974 h 6.64033 z m -4.98025,5.11235 -2.37155,2.43445 h -1.89723 l -10.90894,-11.19831 h 6.64032 z m -2.60869,45.76773 h -20.86961 v -41.14227 h 20.86961 z m -4.98025,-43.33328 h -6.64033 l -10.90895,-11.19831 h 6.64033 z m -9.96032,0 h -6.40318 L 459.2543,540.81925 h 6.64033 z m -8.06309,82.52629 v 6.57303 l -10.90895,-10.95487 v -6.8163 z m -10.90895,-71.81469 10.90895,10.95487 v 6.8163 l -10.90895,-10.95487 z m 10.90895,27.99622 -10.90895,-11.19832 v -6.8163 l 10.90895,11.19832 z m -10.90895,-38.22092 10.90895,11.19831 v 6.8163 l -10.90895,-11.19831 z m 2.13439,52.58419 -2.13439,2.19101 v -4.13857 z m -2.13439,-5.3558 v -6.81629 l 6.87749,7.30319 -3.32017,3.16479 z m 0,-9.98108 v -6.81631 l 10.90895,10.95488 v 2.19101 l -2.37155,2.43445 z M 468.50333,560.29488 457.59438,549.34 v -6.8163 l 10.90895,10.95487 z m -10.90895,73.03192 10.90895,11.19832 v 6.81647 l -10.90895,-11.19833 z m 0,-20.20596 10.90895,11.19831 v 6.8163 l -10.90895,-11.19832 z m 41.50204,2.191 -3.32016,3.40824 -7.35179,-7.54664 h 6.64032 z m -3.083,37.49059 h -0.71145 l 0.4743,-0.48689 z m 4.50594,-5.59924 5.45455,5.59924 h -6.64033 l -1.89724,-2.19101 z m 4.98023,-5.11236 10.19748,10.71143 h -6.64033 l -6.87731,-7.30337 z m 1.42292,-8.76387 10.67179,11.19833 v 6.81646 l -10.67179,-11.19831 z m 0,-9.98109 10.67179,11.19833 v 6.57302 l -10.67179,-10.95487 z m 0,-10.22453 10.67179,11.19832 v 6.8163 l -10.67179,-11.19832 z m 0,-9.98109 10.67179,10.95487 v 6.8163 l -10.67179,-10.95487 z m 0,-10.22454 10.67179,11.19832 v 6.8163 l -10.67179,-11.19832 z m 0,-9.98109 10.67179,10.95487 v 6.8163 l -10.67179,-10.95487 z m 0,-10.22454 10.67179,11.19832 v 6.8163 l -10.67179,-11.19832 z m 0,-9.98109 10.67179,10.95487 v 6.81631 l -10.67179,-10.95488 z m 0,-10.22453 10.67179,11.19831 v 6.8163 l -10.67179,-11.19831 z m 0,-9.9811 10.67179,10.95488 v 6.8163 l -10.67179,-10.95488 z m 3.55731,-6.57302 7.11448,7.54664 v 6.8163 L 507.15966,539.3584 Z m 3.32017,-3.40824 c 0.84477,1.09561 1.58587,2.25204 2.22332,3.4691 0.63726,1.21733 1.08192,2.49531 1.33398,3.83426 l -5.2174,-5.35579 z m -11.38326,-5.3558 c 1.90218,0.0154 3.67079,0.35008 5.30634,1.0042 1.63528,0.65438 3.10755,1.53685 4.41701,2.64747 l -7.11465,7.54664 h -48.14236 l -7.11448,-7.3032 c 1.31914,-1.22723 2.83104,-2.18069 4.53558,-2.86048 1.70455,-0.67948 3.51285,-1.02436 5.42491,-1.03463 h 42.68782 z m -47.19375,12.90244 v 99.81091 L 444.5512,651.09797 V 543.00992 c 0.0148,-1.96261 0.34088,-3.81888 0.97824,-5.56882 0.63734,-1.74959 1.497,-3.30156 2.57905,-4.65589 z m 3.79448,71.08436 h 6.64033 l 10.67178,11.19832 h -6.64032 z m 19.68382,0 h 6.64033 l 8.77455,9.25076 -1.89723,1.94756 h -2.84586 z"
         inkscape:connector-curvature="0" />
      <path
         style="font-style:normal;font-weight:normal;font-size:40px;line-height:125%;font-family:Sans;letter-spacing:0px;word-spacing:0px;fill:#000000;stroke-width:1.10239"
         id="path3084-2"
         d="m 583.68072,625.79858 h -20.8696 v -71.57126 h 20.8696 v 20.20597 l 28.45855,-6.8163 V 543.029 c -0.12368,-5.11725 -1.83301,-9.3674 -5.12847,-12.75028 -3.29547,-3.38271 -7.43579,-5.13754 -12.42081,-5.26451 h -42.68781 c -4.98519,0.12693 -9.12534,1.8818 -12.4208,5.26451 -3.29546,3.38288 -5.00495,7.63303 -5.12848,12.75028 v 93.96822 c 0.12353,5.11743 1.83302,9.36741 5.12848,12.7503 3.29546,3.38287 7.43561,5.1377 12.4208,5.2645 h 42.68781 c 4.98502,-0.1268 9.12534,-1.88163 12.42081,-5.2645 3.29529,-3.38289 5.00479,-7.63287 5.12847,-12.7503 v -41.38571 l -28.45855,6.8163 z m 20.63244,23.1273 c -0.5979,0.59845 -1.24018,1.10563 -1.92688,1.5215 -0.68682,0.41589 -1.38839,0.80134 -2.10474,1.15637 l -9.72317,-9.98109 h 6.64033 l 7.11463,7.30336 z m -18.49805,-43.57672 10.90895,5.84269 v 26.77899 l -10.90895,-11.19832 z m 2.13439,-1.46066 19.44668,-4.62546 -9.72317,9.73765 z m 21.81822,30.67412 v 2.43446 c 0.01,0.61876 -0.01,1.26794 -0.0593,1.94756 -0.0494,0.67963 -0.18784,1.32881 -0.41501,1.94756 l -10.19749,-10.71142 v -6.81631 z m -10.67179,-21.42319 10.67179,11.19831 v 6.81631 l -10.67179,-11.19832 z m 3.79447,-6.08614 6.87732,7.05975 v 6.8163 l -10.19748,-10.46798 z m 4.98025,-5.11235 1.89724,2.19101 v 6.8163 l -5.21741,-5.59925 z m 1.89724,-1.94756 v 0.73032 l -0.23714,-0.48689 z m -14.94058,39.1947 h -43.39928 l 10.90894,-11.19832 h 21.58107 z m -46.24513,13.14589 c -1.29941,-0.35503 -2.49506,-0.80133 -3.58697,-1.33894 -1.09189,-0.53759 -2.10968,-1.22735 -3.05336,-2.06928 l 1.66008,-1.70412 z m 0,-10.22454 10.19748,10.71143 h -6.64016 l -6.87749,-7.30337 z M 560.6769,560.31347 549.76795,549.3586 v -6.8163 l 10.90895,10.95487 z m -10.90895,69.86713 v -6.8163 l 6.87748,7.05975 -3.32016,3.40824 z m 0,-37.24714 10.90895,11.19832 v 6.8163 l -10.90895,-11.19831 z m 10.90895,27.99622 -10.90895,-10.95487 v -6.8163 l 10.90895,10.95487 z m -10.90895,-37.97748 10.90895,10.95487 v 6.81631 L 549.76795,589.7685 Z m 0,-10.22453 10.90895,11.19831 v 6.81631 l -10.90895,-11.19832 z m 0,-9.9811 10.90895,10.95488 v 6.8163 l -10.90895,-10.95487 z m 0,-10.22453 10.90895,11.19831 v 6.81631 l -10.90895,-11.19832 z m 0,67.43268 v -6.8163 l 10.90895,11.19831 v 2.19101 l -2.37155,2.19101 z m 2.13439,15.58033 -2.13439,1.94756 v -4.13856 z m 5.92886,6.08614 10.67179,11.19831 h -6.64033 l -10.67178,-11.19831 z m 9.72318,0 10.90895,11.19831 H 571.823 l -10.90895,-11.19831 z m 9.96032,0 10.67179,11.19831 h -6.64016 l -10.67179,-11.19831 z m -26.087,-100.7847 h 6.64033 l 10.67179,11.19832 h -6.40317 z m 27.27277,11.19832 h -6.64032 l -10.90894,-11.19832 h 6.64033 z m -7.58878,-11.19832 h 6.64033 l 8.5374,8.76387 -2.37154,2.43445 h -1.89724 z m 38.6562,2.6779 v 6.8163 l -10.43464,-10.95487 3.32016,-3.40824 z m -13.04334,-1.46066 v 17.04118 l -10.90895,11.19832 v -17.04118 z m -4.03163,24.34454 2.84586,2.92135 -5.45456,1.21721 -0.47431,-0.73032 z m 4.98025,-5.11235 5.92886,6.08613 -5.45456,1.21721 -3.79447,-3.89512 z m 10.19748,5.11235 -1.66008,0.24345 -2.6087,-2.6779 z m -8.77455,-13.87622 10.67179,11.19832 v 0.97377 l -10.67179,-5.84269 z m 0,-9.98109 10.67179,10.95488 v 6.8163 L 599.0961,549.35726 Z m -8.30025,-1.70412 h 4.03163 l -2.13439,1.94757 z m 0.47431,3.65169 -3.32017,3.40823 -7.11463,-7.05975 h 6.64033 z m 13.04334,-9.9811 1.66008,-1.94756 c 0.84477,1.09561 1.58587,2.25204 2.22332,3.4691 0.63725,1.21733 1.08192,2.49531 1.33398,3.83426 z m -9.72318,-7.30319 c 1.90218,0.0154 3.67079,0.35007 5.30634,1.0042 1.63528,0.65438 3.10755,1.53685 4.417,2.64747 l -7.11464,7.54663 h -48.14236 l -7.11448,-7.30319 c 1.31912,-1.22723 2.83104,-2.18069 4.53558,-2.86048 1.70454,-0.67948 3.51285,-1.02437 5.42491,-1.03463 h 42.68782 z m -57.86571,15.82378 c 0.0148,-1.96261 0.3409,-3.81888 0.97826,-5.56881 0.63732,-1.74959 1.49699,-3.30156 2.57904,-4.65589 l 7.11448,7.30319 v 99.81091 l -7.11448,7.30336 c -1.08201,-1.35414 -1.9417,-2.90613 -2.57904,-4.65589 -0.63737,-1.74977 -0.96345,-3.60603 -0.97826,-5.56881 v -93.96823 z m 43.8736,98.59369 h 6.64033 l 10.43463,10.71142 c -0.90914,0.28402 -1.93676,0.44632 -3.08301,0.48689 h -3.08301 z m 18.49805,-1.46065 v -6.81631 l 9.48602,9.9811 c -0.34591,0.7354 -0.72141,1.4556 -1.12647,2.16057 -0.4052,0.70498 -0.89928,1.36431 -1.4822,1.97799 z"
         inkscape:connector-curvature="0" />
      <path
         style="font-style:normal;font-weight:normal;font-size:40px;line-height:125%;font-family:Sans;letter-spacing:0px;word-spacing:0px;fill:#000000;stroke-width:1.10239"
         id="path3086-7"
         d="m 681.30934,589.76866 27.03562,-64.75647 h -29.40717 l -20.8696,50.14974 h -3.083 v -50.14974 h -28.45855 v 129.99814 h 28.45855 v -50.63664 h 3.32016 l 21.34391,50.63664 h 28.6957 z m 2.84586,36.27335 17.07512,17.77152 2.84586,6.57302 -13.99196,-10.95486 z m 9.96032,0.24345 4.74309,11.68521 -17.54943,-18.2584 -5.92887,-12.65899 z m -26.5613,-36.27336 0.23715,-0.73034 18.97237,19.23219 4.74308,11.92865 -18.97236,-19.47562 z m 17.07513,-13.87622 -2.1344,4.62547 -7.58878,-8.03353 1.89723,-4.62546 z m -4.98025,-15.09344 7.82593,8.03353 -1.89724,4.62546 -7.82593,-8.03353 z m 3.083,-7.05975 7.82594,8.03353 -2.13439,4.62546 -7.58879,-8.03353 z m 2.84586,-7.05974 7.82593,8.03352 -1.89723,4.62547 -7.82594,-8.03353 z m 3.08301,-7.05975 7.82593,8.03353 -2.13439,4.62546 -7.58877,-7.79008 z m 5.92886,-3.89513 4.7431,4.86891 -1.89724,4.62546 -6.87748,-6.8163 z m 5.69171,-4.13857 1.89723,1.94756 -1.89723,4.62547 -3.79447,-3.89513 z m 4.03162,-2.6779 -0.94861,2.19101 -0.9486,-0.97376 z m -22.52967,-1.94756 h 20.86959 l -14.46626,10.22454 z m -15.65204,60.13101 -5.92886,-10.95488 19.68383,-47.71529 6.64032,10.46798 z m -1.66008,1.46065 h -21.10676 l 10.90895,-11.19832 h 3.79447 z m -11.62041,-55.50554 v 6.8163 l -5.69171,-5.59925 3.32017,-3.40823 z m 0,10.22453 v 6.57303 l -10.67179,-10.71143 3.32016,-3.40823 z m 0,16.79757 -10.90894,-11.19832 v -6.57303 l 10.90894,10.95487 z m -10.90894,9.00731 v -6.81631 l 10.90894,11.19832 v 2.19101 l -2.37154,2.19101 z m 1.89723,15.58033 -1.89723,1.94756 v -4.13857 z m -1.89723,-5.3558 v -6.8163 l 6.87748,7.05975 -3.32017,3.40823 z m 0,-27.02244 10.90894,11.19832 v 6.57303 l -10.90894,-10.95487 z m 10.90894,81.79596 v 6.81648 l -10.90894,-11.19833 v -6.81629 z m 0,-105.6536 v 1.46065 l -0.71146,-0.73032 z m -22.29253,-1.46066 h 20.3953 l -10.19749,10.46798 z m 9.01171,112.47008 -10.67179,11.19831 V 528.90731 l 10.67179,11.19832 z m -8.30024,12.90244 h -0.71147 l 0.23716,-0.4869 z m 4.50594,-5.3558 5.21739,5.3558 h -6.64033 l -1.89723,-2.19102 z m 4.98024,-5.11235 10.19749,10.46797 h -6.64017 l -6.87748,-7.05991 z m 1.18575,-8.76387 10.90895,10.95487 v 6.81647 l -10.90895,-10.95488 z m 0,-20.20597 10.90895,10.95487 v 6.81631 l -10.90895,-10.95488 z m 0,-10.22453 10.90895,11.19831 v 6.8163 l -10.90895,-11.19831 z m 0,-9.9811 10.90895,11.19832 v 6.57303 l -10.90895,-10.95488 z m 1.42292,-1.70412 h 6.64032 l 9.01172,9.00732 -0.94861,1.70411 h -4.03162 z m 9.96032,0 h 6.64033 l 2.6087,2.6779 -2.37155,4.38202 z m 9.72318,0 h 1.18575 l -0.47431,0.4869 z m 5.92886,-4.38201 1.89723,-4.62547 8.5374,8.76387 4.98025,11.68521 z m 2.84586,-7.05975 1.89723,-4.62546 7.82593,8.03353 -1.89723,4.62546 z m -5.69172,12.41555 22.05538,48.20218 -7.35163,10.95487 -20.63245,-48.44562 z m 24.42692,60.37445 h -7.82593 l 3.32016,-4.86891 z m -3.32017,-6.81647 2.60871,-3.65168 13.04333,10.46798 h -9.01171 z"
         inkscape:connector-curvature="0" />
      <path
         style="font-style:normal;font-weight:normal;font-size:40px;line-height:125%;font-family:Sans;letter-spacing:0px;word-spacing:0px;fill:#000000;stroke-width:1.10239"
         id="path3088-0"
         d="m 746.708,625.79858 v -21.17976 h 39.36766 V 575.16193 H 746.708 v -20.9363 h 49.32815 V 525.01219 H 718.2511 v 129.99814 h 77.78505 v -29.21345 z m -15.41488,-85.69109 v 99.81091 l -10.67178,11.19832 V 528.90883 Z m 31.3044,11.92865 h -6.64032 l -10.90895,-11.19831 h 6.64033 z m -0.9486,-11.19831 10.67179,11.19831 h -6.40317 l -10.90895,-11.19831 z m 9.72317,0 10.90895,11.19831 h -6.64017 l -10.90894,-11.19831 z m 9.96032,0 10.6718,11.19831 h -6.40318 l -10.90894,-11.19831 z m 5.21741,-4.86891 7.11446,7.54664 v 6.8163 l -10.43463,-10.95488 z m 4.98024,-4.86891 2.13439,2.19101 v 6.8163 l -5.45455,-5.59924 z m 2.13439,-2.43445 v 1.46065 l -0.47429,-0.73032 z m -60.71156,9.73764 -10.67179,-11.19832 h 69.48464 l -10.67179,11.19832 z m 11.6204,75.70983 v 6.8163 l -10.90893,-10.95488 v -6.8163 z m 0,-50.3932 v 6.8163 l -10.90893,-11.19832 v -6.8163 z m -8.77454,71.8147 -2.13439,1.94756 v -4.13857 z m -2.13439,-5.3558 v -6.8163 l 6.87747,7.05975 -3.32016,3.40822 z m 0,-10.22454 v -6.8163 l 10.90893,11.19832 v 2.191 l -2.37153,2.19102 z m 10.90893,-9.00731 -10.90893,-11.19831 v -6.81631 l 10.90893,11.19832 z m -8.77454,-26.04865 -2.13439,2.19101 v -4.13858 z m -2.13439,-5.3558 v -6.8163 l 6.87747,7.05974 -3.32016,3.40824 z m 0,-9.98109 v -6.81631 l 10.90893,10.95488 v 2.19101 l -2.37153,2.43445 z m 0,-20.20597 v -6.8163 l 10.90893,10.95487 v 6.8163 z m -10.67179,103.21915 h -0.71147 c 0.01,-0.01 0.0494,-0.0507 0.11858,-0.12173 0.0692,-0.071 0.10871,-0.11158 0.11858,-0.12172 z m 4.50593,-5.3558 5.2174,5.3558 h -6.64033 l -1.89724,-1.94756 z m 4.98024,-5.11235 10.19748,10.46798 h -6.64015 l -6.87749,-7.05991 z m 9.24887,-0.4869 10.67179,10.95488 h -6.64033 l -10.67179,-10.95488 z m 9.72317,0 10.90894,10.95488 h -6.64032 l -10.90895,-10.95488 z m 9.96032,0 10.67179,10.95488 h -6.64015 l -10.67179,-10.95488 z m 9.72318,0 10.90895,10.95488 h -6.64033 l -10.90895,-10.95488 z m 9.96032,0 10.67179,10.95488 h -6.64032 l -10.67179,-10.95488 z m 5.45455,-4.38201 7.11448,7.30319 v 6.81647 L 783.22899,640.6457 Z m 4.98025,-5.11235 2.13439,2.19101 v 6.81646 l -5.45455,-5.59923 z m 2.13439,-0.97376 -0.71144,-0.73034 0.71144,-0.73032 z m -12.33187,8.03353 h -46.00797 l 10.90893,-11.19833 h 45.77083 z m -46.24513,-48.20219 h 6.64033 L 752.3989,602.181 h -6.64032 z m 48.14237,-11.19832 0.71144,-0.48689 v 1.21721 z m 0.71144,4.13857 v 6.8163 l -5.6917,-5.84269 3.32016,-3.40823 z m 0,9.98109 v 6.81631 l -10.67179,-10.71143 3.32017,-3.40824 z m -1.89723,8.27697 h -6.64033 l -10.90895,-11.19831 h 6.64033 z m -9.96033,0 h -6.64016 l -10.67179,-11.19831 h 6.64033 z m -9.72316,0 h -6.64033 L 744.8106,590.98269 h 6.64017 z m 9.0117,-13.38932 h -36.04749 l 10.90894,-11.19832 h 36.04749 z m -36.04749,-47.95874 h 6.64033 l 10.67179,11.19832 h -6.40318 z"
         inkscape:connector-curvature="0" />
      <path
         style="font-style:normal;font-weight:normal;font-size:40px;line-height:125%;font-family:Sans;letter-spacing:0px;word-spacing:0px;fill:#000000;stroke-width:1.10239"
         id="path3090-9"
         d="m 889.14895,655.01033 -10.90894,-52.09732 c 3.00873,-1.51639 5.40992,-3.71744 7.2034,-6.60345 1.79332,-2.88567 2.71229,-6.12147 2.75692,-9.70722 v -43.57672 c -0.12352,-5.0006 -1.83301,-9.17975 -5.12847,-12.53727 -3.29546,-3.35734 -7.43578,-5.10204 -12.4208,-5.23407 h -60.23725 v 129.75469 h 28.45855 v -50.39319 h 11.14609 l 9.72318,50.39319 z M 823.45879,639.91689 812.787,651.1152 V 529.15076 l 10.67179,11.19831 z m 62.37164,-96.15924 v 6.57302 l -10.43464,-10.71142 3.32017,-3.40824 z m -21.58106,108.81839 h -0.94861 l 0.47432,-0.48689 z m 4.26878,-5.59924 5.45456,5.59924 h -6.64033 l -2.13439,-2.191 z m 4.50593,-4.86891 11.38326,10.46799 h -7.11464 l -7.11446,-7.30337 z m -1.66007,-12.17211 13.04333,13.14589 1.66008,7.79008 -12.56902,-11.19831 z m -2.84586,-13.14587 13.04333,13.38932 1.89724,8.76387 -13.04333,-13.38933 z m -21.58106,-25.56177 h 6.40318 l 3.083,2.92135 -2.84586,3.89512 z m 9.72317,0 h 2.13439 l -0.94862,1.21721 z m 9.01171,12.41555 13.28048,13.63277 1.89724,8.76387 -13.28048,-13.63277 z m -2.6087,-11.92865 12.80618,11.19832 2.13439,10.22453 -13.28049,-13.63277 z m 2.84585,-0.4869 h 7.11447 l 7.3518,7.3032 c -0.98822,0.97381 -2.09487,1.70412 -3.32017,2.191 z m 6.87748,-48.93252 v 45.0374 l -10.90895,-10.95487 v -22.88387 z m 13.04334,41.87261 v 2.43445 c -0.005,0.6239 -0.0543,1.26293 -0.14823,1.91713 -0.0941,0.65431 -0.20264,1.2325 -0.32606,1.73455 l -10.43464,-10.46798 v -6.8163 z m -10.90895,-21.4232 10.90895,11.19832 v 6.8163 l -10.90895,-11.19831 z m 0,-9.98109 10.90895,11.19832 v 6.57303 l -10.90895,-10.95488 z m 0,-10.22453 10.90895,11.19832 v 6.8163 l -10.90895,-11.19832 z m -8.06309,-1.46066 h 4.03163 l -2.13439,1.94756 z m 0.23716,3.65168 -3.08301,3.40824 -7.11463,-7.05975 h 6.64033 z m -4.74309,5.11236 -2.37155,2.191 h -2.13439 l -10.67179,-10.95487 h 6.64033 z m -2.84585,25.56176 h -20.63245 v -20.9363 h 20.63245 z m -4.74309,-23.37076 h -6.64033 l -10.90895,-10.95487 h 6.64033 z m -9.96033,0 h -6.64033 l -10.67179,-10.95487 h 6.64033 z m -8.0631,11.92866 v 6.57302 L 825.83067,559.5806 v -6.8163 z m 0,70.59747 v 6.8163 l -10.90893,-11.19833 v -6.81629 z m -10.90893,-21.17975 10.90893,10.95487 v 6.81631 l -10.90893,-10.95488 z m 1.89723,-28.23966 -1.89723,1.94756 v -4.13857 z m -1.89723,-5.3558 v -6.8163 l 6.87747,7.05974 -3.32016,3.40824 z m 0,-10.22454 v -6.8163 l 10.90893,11.19832 v 2.19101 l -2.37153,2.191 z m 10.90893,-9.00731 -10.90893,-11.19832 v -6.8163 l 10.90893,11.19832 z m -21.58105,92.26411 h -0.94862 l 0.47431,-0.48689 z m 4.50593,-5.3558 5.2174,5.3558 h -6.64033 l -1.89723,-2.19101 z m 4.98024,-5.11236 10.19748,10.46798 h -6.64016 l -6.87747,-7.05991 z m 1.18576,-8.76386 10.90895,10.95488 v 6.81646 l -10.90895,-10.95487 z m 0,-30.43067 10.90895,11.19832 v 6.8163 l -10.90895,-11.19831 z m 10.90895,7.79008 -10.90895,-10.95488 v -6.81629 l 10.90895,10.95487 z m 23.24114,-33.35201 10.90895,11.19831 h -43.39929 l 10.67179,-11.19831 z m -16.36349,13.63277 8.5374,8.76386 -1.89725,2.19101 h -2.37154 l -10.90894,-10.95487 z m 17.31228,0.97376 10.43463,48.20218 -10.19749,10.95488 -9.0117,-47.71529 z m 13.99195,-2.43445 v -6.8163 l 9.72317,9.98109 c -0.75106,1.50128 -1.62061,2.88077 -2.60871,4.13857 z m 5.45455,-55.2621 1.66009,-1.70412 c 1.65991,1.94773 2.84568,4.38202 3.55731,7.30319 z m -7.35179,4.13857 h -47.90522 l -10.67179,-11.19832 h 56.20563 c 1.90218,0.0154 3.67079,0.35007 5.30633,1.0042 1.63529,0.65437 3.10755,1.53685 4.417,2.64747 z m -45.77083,52.5842 h 6.40317 l 10.90895,10.95488 h -6.64033 z"
         inkscape:connector-curvature="0" />
      <path
         style="font-style:normal;font-weight:normal;font-size:40px;line-height:125%;font-family:Sans;letter-spacing:0px;word-spacing:0px;fill:#000000;stroke-width:1.10239"
         id="path3092-3"
         d="m 931.98499,575.16193 v -20.9363 h 20.63245 v 9.98109 l 28.69569,-6.8163 v -14.60655 c -0.12351,-5.00061 -1.833,-9.17975 -5.12846,-12.53727 -3.29546,-3.35735 -7.43578,-5.10204 -12.42081,-5.23408 h -42.68781 c -4.98519,0.13199 -9.12535,1.87673 -12.42081,5.23408 -3.29546,3.35752 -5.00495,7.53666 -5.12847,12.53727 v 43.57672 c 0.12352,5.11742 1.83301,9.36758 5.12847,12.75028 3.29546,3.38288 7.43562,5.13771 12.42081,5.26451 h 31.54155 v 21.17975 h -20.63245 v -10.46798 l -28.45854,7.05974 v 14.85 c 0.12352,5.01091 1.83301,9.23046 5.12847,12.65899 3.29546,3.42852 7.43561,5.21379 12.4208,5.3558 h 42.68781 c 4.98503,-0.14201 9.12535,-1.92728 12.42081,-5.3558 3.2953,-3.42853 5.00479,-7.64808 5.12847,-12.65899 v -43.82017 c -0.12352,-5.11725 -1.83301,-9.3674 -5.12847,-12.75028 -3.29546,-3.38271 -7.43578,-5.13754 -12.42081,-5.26451 z m 41.50205,73.76226 c -0.59792,0.49704 -1.24019,0.96364 -1.92688,1.3998 -0.68684,0.43617 -1.38839,0.78103 -2.10475,1.03462 l -9.72318,-9.98109 h 6.40317 l 7.3518,7.5468 z m -18.49805,-45.28084 10.90893,-10.95487 v 45.03739 l -10.90893,-11.19831 z m 4.74308,-12.65899 h 4.50594 l -2.37155,2.19101 z m 0.47431,3.89513 -3.083,3.40823 -7.3518,-7.30319 h 6.64033 z m 18.73521,39.43815 v 2.6779 c -0.0395,1.21722 -0.19769,2.43445 -0.47429,3.65167 l -10.43464,-10.71143 v -6.81629 z m -10.90895,-21.17975 10.90895,10.95487 v 6.81631 l -10.90895,-10.95488 z m 0,-10.22453 10.90895,11.19831 v 6.8163 l -10.90895,-11.19831 z m 0,-9.9811 10.90895,10.95487 v 6.81631 l -10.90895,-10.95487 z m 3.79448,-6.32958 7.11447,7.30319 v 6.8163 l -10.43464,-10.71142 z m 3.55732,-3.65168 c 0.83489,0.98907 1.53646,2.11493 2.10474,3.37781 0.56809,1.26292 0.97323,2.57139 1.2154,3.92555 l -5.2174,-5.3558 z m -11.62041,-5.59924 c 1.89724,0.0101 3.67573,0.35509 5.33598,1.03462 1.65992,0.67969 3.20141,1.63317 4.62451,2.86049 l -7.11464,7.30319 H 920.6019 l 10.67179,-11.19832 h 32.49017 z m -46.24514,24.34453 c -1.18577,-0.35497 -2.31225,-0.80126 -3.37945,-1.33893 -1.06719,-0.53753 -2.0751,-1.2273 -3.02372,-2.06928 l 1.66009,-1.70412 z m 0.23715,-10.22453 10.19748,10.46798 h -6.64015 l -6.87748,-7.05975 z m 12.09472,-31.16101 -10.90894,-11.19832 v -6.8163 l 10.90894,11.19832 z m -10.90894,19.23219 v -6.81631 l 6.87748,7.05975 -3.32016,3.40824 z m 10.90894,-15.82379 v 6.57303 l -10.90894,-10.95487 v -6.8163 z m -10.90894,5.59925 v -6.8163 l 10.90894,11.19832 v 2.191 l -2.37154,2.19101 z m 1.89724,15.58033 -1.89724,1.94757 v -4.13858 z m 5.92886,6.08614 10.90895,10.95487 h -6.64033 l -10.67179,-10.95487 z m 9.96032,0 10.90895,10.95487 h -6.64033 L 930.08791,590.98487 Z M 920.6019,540.83512 h 6.64033 l 10.67179,10.95487 h -6.64033 z m 27.27277,10.95487 h -6.64033 L 930.3254,540.83512 h 6.64033 z m -7.58877,-10.95487 h 6.64032 l 8.53739,8.76387 -2.37153,2.191 h -2.13439 z m 38.65619,2.6779 v 6.57303 l -10.43464,-10.71143 3.32016,-3.40824 z m -13.04334,-1.46066 v 6.81631 l -10.90895,11.19831 v -6.8163 z m -4.03163,14.11967 2.84585,2.92134 -5.45455,1.21721 -0.71147,-0.73032 z m 4.98024,-5.11236 5.69172,6.08614 -5.21741,1.21721 -3.79447,-3.89513 z m 9.96034,5.11236 -1.42292,0.24344 -2.84585,-2.6779 z m -8.77456,-13.87622 10.90895,11.19832 v 0.97376 l -10.90895,-5.84269 z m -8.06309,-1.46066 h 4.03163 l -2.13439,1.94757 z m 0.23716,3.65169 -3.08302,3.40823 -7.11464,-7.05975 h 6.64033 z m 13.28048,-10.22454 1.66008,-1.70412 c 1.65993,1.94773 2.8457,4.38202 3.55733,7.30319 z m -9.72317,-7.05975 c 1.90218,0.0154 3.67079,0.35007 5.30634,1.0042 1.63527,0.65437 3.10755,1.53685 4.417,2.64747 l -7.35179,7.54663 h -47.90522 l -7.11447,-7.30319 c 1.31912,-1.22723 2.83103,-2.18069 4.53558,-2.86048 1.70455,-0.67949 3.51285,-1.02437 5.42491,-1.03463 h 42.68782 z m -57.86571,15.58034 c 0.0149,-1.84596 0.3409,-3.63123 0.97825,-5.3558 0.63733,-1.72424 1.49701,-3.26606 2.57906,-4.62546 l 7.11446,7.30319 v 49.17596 l -7.11446,7.3032 c -1.08202,-1.3541 -1.9417,-2.90596 -2.57906,-4.6559 -0.63737,-1.74976 -0.96344,-3.60586 -0.97825,-5.56881 v -43.57672 z m 34.15026,48.20218 h 6.40317 l 9.01171,9.00731 -2.13439,1.94756 h -2.6087 z m 23.95261,48.20219 h -43.39929 l 10.67179,-11.19832 h 21.81823 z m -46.48229,12.90244 c -2.37155,-0.52746 -4.50594,-1.66352 -6.40301,-3.40824 l 1.66008,-1.46066 z m 0.23715,-9.98109 10.19749,10.46797 h -6.64017 l -6.87748,-7.05991 z m 1.42291,-11.68522 3.32017,-3.40824 3.32016,3.40824 -3.32016,3.16479 z m 4.98025,-5.11235 3.32016,-3.40824 2.37154,2.19101 v 2.19101 l -2.37154,2.43446 z m 4.98025,-5.11235 0.71145,-0.73032 v 1.46066 z m -21.34391,3.16479 19.44666,-4.62547 -9.72317,9.9811 z m 13.04332,11.92865 -1.89723,2.19101 v -4.13857 z m 5.92888,6.08614 10.90893,11.19831 h -6.64032 l -10.67179,-11.19831 z m 9.96032,0 10.90895,11.19831 h -6.64033 l -10.90895,-11.19831 z m 9.72317,0 10.90894,11.19831 h -6.64016 l -10.67179,-11.19831 z m -29.88148,-10.46799 v 8.76386 l -7.11446,7.3032 c -1.08202,-1.34401 -1.94171,-2.85541 -2.57906,-4.53417 -0.63737,-1.67873 -0.96344,-3.49446 -0.97824,-5.44709 v -12.1721 z m 33.20165,10.46799 h 6.64033 l 10.43463,10.71143 c -0.48426,0.12679 -0.9981,0.23836 -1.5415,0.33472 -0.54354,0.0963 -1.05736,0.14709 -1.54148,0.15216 h -3.08301 z m 18.26089,-1.21721 v -6.81631 l 9.72317,9.73765 c -0.75105,1.50124 -1.6206,2.88077 -2.60869,4.13857 z"
         inkscape:connector-curvature="0" />
      <path
         style="font-style:normal;font-weight:normal;font-size:40px;line-height:125%;font-family:Sans;letter-spacing:0px;word-spacing:0px;fill:#000000;stroke-width:1.10239"
         id="path3094-6"
         d="m 1073.4872,543.02883 c -0.1235,-5.11725 -1.833,-9.3674 -5.1285,-12.75028 -3.2954,-3.38271 -7.4358,-5.13754 -12.4208,-5.2645 h -60.23722 v 129.99814 h 28.45852 v -50.63664 h 31.7787 c 4.985,-0.12674 9.1254,-1.88163 12.4208,-5.26451 3.2953,-3.38271 5.0048,-7.63286 5.1285,-12.75028 v -43.33328 z m -21.5811,47.95874 h 6.4032 l 7.3518,7.54664 c -1.2254,0.93326 -2.5692,1.7447 -4.0316,2.43445 z m -12.0947,11.19832 h -6.6403 l -10.909,-11.19832 h 4.2688 2.3716 z m -1.1857,-11.19832 10.9089,11.19832 h -6.6402 l -10.6717,-11.19832 z m -25.8499,-2.43445 10.6718,-10.95487 h 21.8182 l 10.909,10.95487 h -29.6444 z m -4.0316,-48.44563 v 99.56746 l -10.6718,11.19833 V 528.90883 Z m 43.3993,0.73032 h 4.0316 l -2.1344,1.94756 z m 0.2371,3.65168 -3.083,3.40823 -7.1146,-7.05974 h 6.6403 z m -4.7431,5.11235 -2.3715,2.19101 h -2.1344 l -10.6718,-10.95487 h 6.6403 z m -2.8458,25.56177 h -20.6325 V 554.2273 h 20.6325 z m -4.7431,-23.37076 h -6.6403 l -10.909,-10.95487 h 6.6403 z m -9.9603,0 h -6.6404 l -10.6718,-10.95487 h 6.6404 z m -8.0631,79.11806 -10.909,-10.95488 v -6.8163 l 10.909,11.19832 z m 0,-60.6179 -10.909,-10.95487 v -6.81631 l 10.909,11.19832 z m 0,64.02613 v 6.81647 l -10.909,-11.19831 v -6.81631 z m -9.0117,-49.41941 -1.8973,1.94756 v -4.13857 z m -1.8973,-5.3558 v -6.8163 l 6.8775,7.05975 -3.3202,3.40823 z m 0,-10.22453 v -6.8163 l 10.909,11.19831 v 2.19101 l -2.3716,2.19101 z m 10.909,-9.00731 -10.909,-11.19832 v -6.8163 l 10.909,11.19831 z m -21.5811,92.2641 h -0.71146 l 0.23716,-0.48688 z m 4.5059,-5.3558 5.2174,5.3558 h -6.6403 l -1.8972,-1.94756 z m 4.9803,-5.11235 10.1975,10.46798 h -6.6402 l -6.8775,-7.05991 z m 1.1857,-8.76386 10.909,11.19831 v 6.57303 l -10.909,-10.95488 z m 0,-30.43068 10.909,11.19832 v 6.8163 l -10.909,-11.19831 z m 10.909,7.79009 -10.909,-10.95488 v -6.8163 l 10.909,11.19832 z m 25.1384,-57.45311 10.9089,-11.19832 V 587.333 l -10.9089,-11.19832 z m 23.9526,30.67412 v 2.43445 c -0.04,1.42015 -0.1977,2.71847 -0.4743,3.89513 l -10.4346,-10.71143 v -6.8163 z m -10.909,-21.4232 10.909,11.19832 v 6.8163 l -10.909,-11.19831 z m 0,-9.98109 10.909,11.19832 v 6.57303 l -10.909,-10.95488 z m 0,-10.22453 10.909,11.19831 v 6.81631 l -10.909,-11.19832 z m 3.7945,-6.32958 7.1145,7.54663 v 6.57303 l -10.4347,-10.71143 z m 3.3202,-3.40824 c 1.6599,1.94773 2.8457,4.38202 3.5573,7.30319 l -5.2174,-5.59924 z m -9.0117,5.84269 h -47.9052 l -10.67184,-11.19832 h 56.20564 c 1.9022,0.0154 3.6708,0.35007 5.3063,1.0042 1.6353,0.65437 3.1076,1.53685 4.417,2.64747 z m -45.7709,52.5842 h 6.4032 l 10.909,11.19832 h -6.6404 z m 29.4072,0 h 6.6403 l 10.4347,10.71143 c -0.4843,0.12685 -0.9981,0.2384 -1.5415,0.33472 -0.5436,0.0964 -1.0574,0.14713 -1.5415,0.15215 h -3.083 z m 18.2609,-1.46065 v -6.81631 l 9.7232,9.9811 c -0.7511,1.50128 -1.6206,2.88077 -2.6087,4.13857 z"
         inkscape:connector-curvature="0" />
      <path
         style="font-style:normal;font-weight:normal;font-size:40px;line-height:125%;font-family:Sans;letter-spacing:0px;word-spacing:0px;fill:#000000;stroke-width:1.10239"
         id="path3096-0"
         d="m 1165.6646,543.02883 c -0.1237,-5.11725 -1.833,-9.3674 -5.1285,-12.75028 -3.2955,-3.38271 -7.4358,-5.13754 -12.4208,-5.2645 h -42.6878 c -4.9852,0.12693 -9.1254,1.88179 -12.4208,5.2645 -3.2955,3.38288 -5.005,7.63303 -5.1285,12.75028 v 111.98319 h 28.4585 v -30.18723 h 20.8696 v 30.18723 h 28.4586 z m -15.4149,69.86713 v 27.02244 l -10.909,11.19832 v -27.26588 z m -18.2609,9.49421 h -6.6404 l -10.9089,-11.19832 h 6.6402 z m -16.1264,-24.58799 h 21.5811 l 10.9089,11.19832 h -43.3992 z m -23.2411,55.01866 h -0.7115 l 0.2372,-0.4869 z m 4.5059,-5.59925 5.2174,5.59925 h -6.6403 l -1.8972,-2.19101 z m 4.9803,-5.11235 10.1975,10.71143 h -6.6402 l -6.8775,-7.30336 z m 41.9763,-30.91756 h 4.506 l -2.3716,2.43445 z m 6.166,-69.1368 v 65.48681 l -10.9089,-11.19832 v -43.08983 z m -5.9288,-1.21721 h 4.0316 l -2.1344,1.94757 z m 0.4743,3.65168 -3.3202,3.40824 -7.1146,-7.05975 h 6.6403 z m -4.9803,5.11236 -2.3715,2.43445 h -1.8972 l -10.909,-11.19832 h 6.6403 z m -2.6087,45.76773 h -20.8696 v -41.14227 h 20.8696 z m -4.9802,-43.33328 h -6.6403 l -10.909,-11.19832 h 6.6404 z m -9.9603,0 h -6.4032 l -10.9089,-11.19832 h 6.6403 z m -8.0631,82.5263 v 6.57302 l -10.909,-10.95488 v -6.8163 z m -10.909,-71.8147 10.909,10.95487 v 6.8163 l -10.909,-10.95487 z m 10.909,27.99622 -10.909,-11.19832 v -6.8163 l 10.909,11.19831 z m -10.909,-38.22093 10.909,11.19832 v 6.8163 l -10.909,-11.19832 z m 2.1344,52.5842 -2.1344,2.19102 v -4.13858 z m -2.1344,-5.3558 v -6.8163 l 6.8775,7.30319 -3.3201,3.16479 z m 0,-9.98109 v -6.8163 l 10.909,10.95487 v 2.19101 l -2.3716,2.43446 z m 10.909,-29.45689 -10.909,-10.95487 v -6.8163 l 10.909,10.95487 z m -10.909,73.03192 10.909,11.19833 v 6.81646 l -10.909,-11.19831 z m 0,-20.20596 10.909,11.19831 v 6.81631 l -10.909,-11.19832 z m 41.5021,2.19101 -3.3202,3.40824 -7.3518,-7.54664 h 6.6404 z m -3.083,37.49059 h -0.7115 l 0.4743,-0.4869 z m 4.5059,-5.59925 5.4546,5.59925 h -6.6404 l -1.8972,-2.19101 z m 4.9803,-5.11235 10.1974,10.71143 h -6.6403 l -6.8773,-7.30337 z m 1.4229,-8.76387 10.6718,11.19832 v 6.81647 l -10.6718,-11.19831 z m 0,-9.98109 10.6718,11.19832 v 6.57302 l -10.6718,-10.95486 z m 0,-10.22454 10.6718,11.19832 v 6.8163 l -10.6718,-11.19831 z m 0,-9.98109 10.6718,10.95488 v 6.8163 l -10.6718,-10.95488 z m 0,-10.22453 10.6718,11.19832 v 6.8163 l -10.6718,-11.19832 z m 0,-9.98109 10.6718,10.95487 v 6.8163 l -10.6718,-10.95487 z m 0,-10.22454 10.6718,11.19832 v 6.8163 l -10.6718,-11.19832 z m 0,-9.98109 10.6718,10.95487 v 6.8163 l -10.6718,-10.95487 z m 0,-10.22454 10.6718,11.19832 v 6.8163 l -10.6718,-11.19832 z m 0,-9.98109 10.6718,10.95487 v 6.8163 l -10.6718,-10.95487 z m 3.5573,-6.57303 7.1145,7.54664 v 6.8163 L 1152.859,539.377 Z m 3.3201,-3.40823 c 0.8448,1.09561 1.5859,2.25204 2.2234,3.4691 0.6372,1.21732 1.0819,2.49531 1.334,3.83426 l -5.2174,-5.3558 z m -11.3832,-5.3558 c 1.9022,0.0154 3.6708,0.35007 5.3063,1.0042 1.6353,0.65437 3.1076,1.53685 4.417,2.64747 l -7.1146,7.54663 h -48.1424 l -7.1145,-7.30319 c 1.3192,-1.22723 2.8311,-2.1807 4.5356,-2.86048 1.7046,-0.67949 3.5129,-1.02437 5.4249,-1.03463 h 42.6879 z m -47.1938,12.90244 v 99.81092 l -10.6717,11.19831 V 543.02851 c 0.015,-1.96261 0.3408,-3.81888 0.9782,-5.56881 0.6373,-1.7496 1.497,-3.30156 2.5791,-4.65589 z m 3.7945,71.08435 h 6.6403 l 10.6718,11.19833 h -6.6403 z m 19.6838,0 h 6.6404 l 8.7745,9.25077 -1.8972,1.94756 h -2.8459 z"
         inkscape:connector-curvature="0" />
      <path
         style="font-style:normal;font-weight:normal;font-size:40px;line-height:125%;font-family:Sans;letter-spacing:0px;word-spacing:0px;fill:#000000;stroke-width:1.10239"
         id="path3098-6"
         d="m 1229.3834,625.79858 h -20.8696 v -71.57126 h 20.8696 v 20.20597 l 28.4585,-6.8163 V 543.029 c -0.1237,-5.11725 -1.833,-9.3674 -5.1284,-12.75028 -3.2955,-3.38271 -7.4358,-5.13754 -12.4209,-5.26451 h -42.6878 c -4.9852,0.12693 -9.1253,1.8818 -12.4208,5.26451 -3.2954,3.38288 -5.0049,7.63303 -5.1284,12.75028 v 93.96822 c 0.1235,5.11743 1.833,9.36741 5.1284,12.7503 3.2955,3.38287 7.4356,5.1377 12.4208,5.2645 h 42.6878 c 4.9851,-0.1268 9.1254,-1.88163 12.4209,-5.2645 3.2953,-3.38289 5.0047,-7.63287 5.1284,-12.7503 v -41.38571 l -28.4585,6.8163 z m 20.6324,23.1273 c -0.5979,0.59845 -1.2402,1.10563 -1.9269,1.5215 -0.6868,0.41589 -1.3884,0.80134 -2.1047,1.15637 l -9.7232,-9.98109 h 6.6403 l 7.1147,7.30336 z m -18.498,-43.57672 10.9089,5.84269 v 26.77899 l -10.9089,-11.19832 z m 2.1344,-1.46066 19.4466,-4.62546 -9.7231,9.73765 z m 21.8182,30.67412 v 2.43446 c 0.01,0.61876 -0.01,1.26794 -0.059,1.94756 -0.049,0.67963 -0.1878,1.32881 -0.415,1.94756 l -10.1975,-10.71142 v -6.81631 z m -10.6718,-21.42319 10.6718,11.19831 v 6.81631 l -10.6718,-11.19832 z m 3.7945,-6.08614 6.8773,7.05975 v 6.8163 l -10.1975,-10.46798 z m 4.9802,-5.11235 1.8972,2.19101 v 6.8163 l -5.2174,-5.59925 z m 1.8972,-1.94756 v 0.73032 l -0.2371,-0.48689 z m -14.9405,39.1947 h -43.3993 l 10.9089,-11.19832 h 21.5811 z m -46.2452,13.14589 c -1.2994,-0.35503 -2.495,-0.80133 -3.5869,-1.33894 -1.0919,-0.53759 -2.1097,-1.22735 -3.0534,-2.06928 l 1.6601,-1.70412 z m 0,-10.22454 10.1975,10.71143 h -6.6402 l -6.8774,-7.30337 z m 12.0947,-81.79596 -10.9089,-10.95487 v -6.8163 l 10.9089,10.95487 z m -10.9089,69.86713 v -6.8163 l 6.8775,7.05975 -3.3202,3.40824 z m 0,-37.24714 10.9089,11.19832 v 6.8163 l -10.9089,-11.19831 z m 10.9089,27.99622 -10.9089,-10.95487 v -6.8163 l 10.9089,10.95487 z m -10.9089,-37.97748 10.9089,10.95487 v 6.81631 l -10.9089,-10.95488 z m 0,-10.22453 10.9089,11.19831 v 6.81631 l -10.9089,-11.19832 z m 0,-9.9811 10.9089,10.95488 v 6.8163 l -10.9089,-10.95487 z m 0,-10.22453 10.9089,11.19831 v 6.81631 l -10.9089,-11.19832 z m 0,67.43268 v -6.8163 l 10.9089,11.19831 v 2.19101 l -2.3715,2.19101 z m 2.1344,15.58033 -2.1344,1.94756 v -4.13856 z m 5.9289,6.08614 10.6717,11.19831 h -6.6403 l -10.6718,-11.19831 z m 9.7231,0 10.909,11.19831 h -6.6403 l -10.909,-11.19831 z m 9.9604,0 10.6717,11.19831 h -6.6401 l -10.6718,-11.19831 z m -26.087,-100.7847 h 6.6403 l 10.6718,11.19832 h -6.4032 z m 27.2727,11.19832 h -6.6403 l -10.9089,-11.19832 h 6.6403 z m -7.5888,-11.19832 h 6.6404 l 8.5374,8.76387 -2.3716,2.43445 h -1.8972 z m 38.6562,2.6779 v 6.8163 l -10.4346,-10.95487 3.3202,-3.40824 z m -13.0433,-1.46066 v 17.04118 l -10.9089,11.19832 v -17.04118 z m -4.0316,24.34454 2.8458,2.92135 -5.4545,1.21721 -0.4743,-0.73032 z m 4.9802,-5.11235 5.9289,6.08613 -5.4546,1.21721 -3.7944,-3.89512 z m 10.1975,5.11235 -1.6601,0.24345 -2.6087,-2.6779 z m -8.7746,-13.87622 10.6718,11.19832 v 0.97377 l -10.6718,-5.84269 z m 0,-9.98109 10.6718,10.95488 v 6.8163 l -10.6718,-10.95488 z m -8.3002,-1.70412 h 4.0316 l -2.1344,1.94757 z m 0.4743,3.65169 -3.3201,3.40823 -7.1147,-7.05975 h 6.6403 z m 13.0434,-9.9811 1.66,-1.94756 c 0.8448,1.09561 1.5859,2.25204 2.2234,3.4691 0.6372,1.21733 1.0819,2.49531 1.3339,3.83426 z m -9.7232,-7.30319 c 1.9022,0.0154 3.6708,0.35007 5.3063,1.0042 1.6353,0.65438 3.1076,1.53685 4.417,2.64747 l -7.1146,7.54663 h -48.1424 l -7.1145,-7.30319 c 1.3192,-1.22723 2.8311,-2.18069 4.5356,-2.86048 1.7046,-0.67948 3.5129,-1.02437 5.4249,-1.03463 h 42.6878 z m -57.8657,15.82378 c 0.015,-1.96261 0.3409,-3.81888 0.9782,-5.56881 0.6374,-1.74959 1.497,-3.30156 2.5791,-4.65589 l 7.1144,7.30319 v 99.81091 l -7.1144,7.30336 c -1.082,-1.35414 -1.9417,-2.90613 -2.5791,-4.65589 -0.6374,-1.74977 -0.9634,-3.60603 -0.9782,-5.56881 v -93.96823 z m 43.8736,98.59369 h 6.6403 l 10.4346,10.71142 c -0.9091,0.28402 -1.9367,0.44632 -3.083,0.48689 h -3.083 z m 18.498,-1.46065 v -6.81631 l 9.486,9.9811 c -0.3459,0.7354 -0.7214,1.4556 -1.1264,2.16057 -0.4052,0.70498 -0.8993,1.36431 -1.4822,1.97799 z"
         inkscape:connector-curvature="0" />
      <path
         style="font-style:normal;font-weight:normal;font-size:40px;line-height:125%;font-family:Sans;letter-spacing:0px;word-spacing:0px;fill:#000000;stroke-width:1.10239"
         id="path3100-2"
         d="m 1300.678,625.79858 v -21.17976 h 39.3676 v -29.45689 h -39.3676 v -20.9363 h 49.3281 v -29.21344 h -77.785 v 129.99814 h 77.785 v -29.21345 z m -15.4149,-85.69109 v 99.81091 l -10.6718,11.19832 V 528.90883 Z m 31.3044,11.92865 h -6.6403 l -10.909,-11.19831 h 6.6403 z m -0.9486,-11.19831 10.6718,11.19831 h -6.4032 l -10.909,-11.19831 z m 9.7231,0 10.909,11.19831 h -6.6402 l -10.9089,-11.19831 z m 9.9604,0 10.6718,11.19831 h -6.4032 l -10.9089,-11.19831 z m 5.2174,-4.86891 7.1145,7.54664 v 6.8163 l -10.4347,-10.95488 z m 4.9802,-4.86891 2.1344,2.19101 v 6.8163 l -5.4545,-5.59924 z m 2.1344,-2.43445 v 1.46065 l -0.4743,-0.73032 z m -60.7116,9.73764 -10.6717,-11.19832 h 69.4846 l -10.6718,11.19832 z m 11.6205,75.70983 v 6.8163 l -10.909,-10.95488 v -6.8163 z m 0,-50.3932 v 6.8163 l -10.909,-11.19832 v -6.8163 z m -8.7746,71.8147 -2.1344,1.94756 v -4.13857 z m -2.1344,-5.3558 v -6.8163 l 6.8775,7.05975 -3.3202,3.40822 z m 0,-10.22454 v -6.8163 l 10.909,11.19832 v 2.191 l -2.3716,2.19102 z m 10.909,-9.00731 -10.909,-11.19831 v -6.81631 l 10.909,11.19832 z m -8.7746,-26.04865 -2.1344,2.19101 v -4.13858 z m -2.1344,-5.3558 v -6.8163 l 6.8775,7.05974 -3.3202,3.40824 z m 0,-9.98109 v -6.81631 l 10.909,10.95488 v 2.19101 l -2.3716,2.43445 z m 0,-20.20597 v -6.8163 l 10.909,10.95487 v 6.8163 z m -10.6718,103.21915 h -0.7114 c 0.01,-0.01 0.049,-0.0507 0.1185,-0.12173 0.069,-0.071 0.1087,-0.11158 0.1186,-0.12172 z m 4.506,-5.3558 5.2174,5.3558 h -6.6404 l -1.8972,-1.94756 z m 4.9802,-5.11235 10.1975,10.46798 h -6.6402 l -6.8775,-7.05991 z m 9.2489,-0.4869 10.6718,10.95488 h -6.6404 l -10.6718,-10.95488 z m 9.7231,0 10.909,10.95488 h -6.6403 l -10.909,-10.95488 z m 9.9604,0 10.6718,10.95488 h -6.6402 l -10.6718,-10.95488 z m 9.7231,0 10.909,10.95488 h -6.6403 l -10.909,-10.95488 z m 9.9604,0 10.6718,10.95488 h -6.6404 l -10.6718,-10.95488 z m 5.4545,-4.38201 7.1145,7.30319 v 6.81647 L 1337.199,640.6457 Z m 4.9803,-5.11235 2.1343,2.19101 v 6.81646 l -5.4545,-5.59923 z m 2.1343,-0.97376 -0.7114,-0.73034 0.7114,-0.73032 z m -12.3318,8.03353 h -46.008 l 10.9089,-11.19833 h 45.7709 z m -46.2452,-48.20219 h 6.6404 l 10.6718,11.19831 h -6.6404 z m 48.1424,-11.19832 0.7115,-0.48689 v 1.21721 z m 0.7115,4.13857 v 6.8163 l -5.6917,-5.84269 3.3201,-3.40823 z m 0,9.98109 v 6.81631 l -10.6718,-10.71143 3.3201,-3.40824 z m -1.8973,8.27697 h -6.6403 l -10.9089,-11.19831 h 6.6403 z m -9.9603,0 h -6.6402 l -10.6717,-11.19831 h 6.6403 z m -9.7232,0 h -6.6403 l -10.9089,-11.19831 h 6.6401 z m 9.0117,-13.38932 h -36.0475 l 10.909,-11.19832 h 36.0475 z m -36.0475,-47.95874 h 6.6404 l 10.6718,11.19832 h -6.4032 z"
         inkscape:connector-curvature="0" />
    </g>
    <g
       line-height="125%"
       font-style="normal"
       font-size="40px"
       transform="matrix(2.5239801,0,0,2.5748811,-496.7053,-316.42434)"
       font-weight="normal"
       style="font-style:normal;font-weight:normal;font-size:40px;line-height:125%;font-family:Sans;letter-spacing:0px;word-spacing:0px;fill:#606060;fill-opacity:1"
       id="flowRoot3040-6">
      <path
         inkscape:connector-curvature="0"
         d="m 390.1,209.61 4.5599,-10.64 H 389.7 l -3.52,8.2399 h -0.52 V 198.97 h -4.7999 v 21.36 h 4.7999 v -8.3199 h 0.56 l 3.6,8.3199 h 4.8399 z"
         id="path3103-1"
         style="fill:#606060;fill-opacity:1" />
      <path
         inkscape:connector-curvature="0"
         d="m 409.6,220.33 -1.84,-8.5599 c 0.50748,-0.24916 0.91247,-0.61082 1.215,-1.085 0.30248,-0.47415 0.45748,-1.0058 0.465,-1.595 v -7.1599 c -0.0208,-0.82164 -0.30918,-1.5083 -0.86499,-2.06 -0.55584,-0.55164 -1.2542,-0.8383 -2.095,-0.85999 h -10.16 v 21.32 h 4.7999 v -8.2799 h 1.88 l 1.64,8.2799 z m -4.9999,-13.08 h -3.48 v -3.44 h 3.48 z"
         id="path3105-8"
         style="fill:#606060;fill-opacity:1" />
      <path
         inkscape:connector-curvature="0"
         d="m 425.15,201.93 c -0.0208,-0.84081 -0.30918,-1.5391 -0.86499,-2.095 -0.55584,-0.5558 -1.2542,-0.84413 -2.095,-0.86499 h -7.1999 c -0.84082,0.0209 -1.5392,0.30919 -2.095,0.86499 -0.55583,0.55585 -0.84416,1.2542 -0.86499,2.095 v 18.4 h 4.7999 v -4.9599 h 3.52 v 4.9599 h 4.7999 z m -4.7999,8.5999 h -3.52 V 203.77 h 3.52 z"
         id="path3107-7"
         style="fill:#606060;fill-opacity:1" />
      <path
         inkscape:connector-curvature="0"
         d="m 436.81,209.61 4.5599,-10.64 H 436.41 l -3.52,8.2399 h -0.52 V 198.97 h -4.7999 v 21.36 h 4.7999 v -8.3199 h 0.56 l 3.6,8.3199 h 4.8399 z"
         id="path3109-9"
         style="fill:#606060;fill-opacity:1" />
      <path
         inkscape:connector-curvature="0"
         d="m 446,198.97 c -0.84083,0.0209 -1.5392,0.30919 -2.095,0.86499 -0.55583,0.55585 -0.84415,1.2542 -0.86499,2.095 v 15.44 c 0.0208,0.82332 0.30917,1.5166 0.86499,2.08 0.55583,0.56333 1.2542,0.85666 2.095,0.87999 h 7.1999 c 0.84081,-0.0233 1.5391,-0.31666 2.095,-0.87999 0.55581,-0.56333 0.84414,-1.2566 0.86499,-2.08 v -15.44 c -0.0208,-0.84081 -0.30918,-1.5391 -0.86499,-2.095 -0.55584,-0.5558 -1.2542,-0.84413 -2.095,-0.86499 z m 5.3199,16.52 h -3.48 v -11.72 h 3.48 z"
         id="path3111-2"
         style="fill:#606060;fill-opacity:1" />
      <path
         inkscape:connector-curvature="0"
         d="m 475.11,198.97 -0.24,16.52 h -0.47999 l -2.88,-16.52 h -4.5599 l -2.8,16.52 h -0.55999 l -0.2,-16.52 h -4.7999 l 0.55999,21.36 h 8.8399 l 1.24,-7.2399 1.28,7.2399 h 8.8399 l 0.56,-21.36 z"
         id="path3113-0"
         style="fill:#606060;fill-opacity:1" />
    </g>
    <rect
       style="fill:#606060;fill-opacity:1;stroke-width:0.965347"
       x="89.582115"
       y="220.89973"
       width="340"
       height="5"
       id="rect3020-2" />
    <rect
       style="fill:#606060;fill-opacity:1;stroke-width:0.965347"
       x="749.54907"
       y="220.89973"
       width="340"
       height="5"
       id="rect3020-3" />
  </g>
</svg>
