<svg xmlns="http://www.w3.org/2000/svg" xmlns:xlink="http://www.w3.org/1999/xlink" viewBox="0 0 200 100"><defs><style>.cls-1,.cls-10,.cls-11,.cls-19{fill:none;}.cls-2{isolation:isolate;}.cls-3{clip-path:url(#clip-path);}.cls-4{clip-path:url(#clip-path-2);}.cls-5{clip-path:url(#clip-path-3);}.cls-6{clip-path:url(#clip-path-4);}.cls-17,.cls-7{fill:#fff;}.cls-8{clip-path:url(#clip-path-5);}.cls-9{fill:#f3e600;}.cls-10,.cls-17,.cls-19{stroke:#fff;}.cls-10,.cls-11,.cls-17,.cls-19{stroke-miterlimit:10;}.cls-10,.cls-11{stroke-width:0.78px;}.cls-11{stroke:#f1e511;}.cls-12{clip-path:url(#clip-path-6);}.cls-13{clip-path:url(#clip-path-7);}.cls-14{clip-path:url(#clip-path-8);}.cls-15{clip-path:url(#clip-path-9);}.cls-16{clip-path:url(#clip-path-10);}.cls-17{stroke-width:1.21px;}.cls-18{mix-blend-mode:soft-light;opacity:0.5;}.cls-19{stroke-width:20.39px;stroke-dasharray:0.31 6.29;}.cls-20{fill:#343434;}</style><clipPath id="clip-path"><rect class="cls-1" x="399.01" y="-307.12" width="399.62" height="269.45"/></clipPath><clipPath id="clip-path-2"><rect class="cls-1" x="395.71" y="-424.12" width="981.54" height="521.22"/></clipPath><clipPath id="clip-path-3"><rect class="cls-1" x="-25.3" y="-307.12" width="399.62" height="269.45"/></clipPath><clipPath id="clip-path-4"><rect class="cls-1" x="-28.6" y="-424.12" width="981.54" height="521.22"/></clipPath><clipPath id="clip-path-5"><rect id="SVGID" class="cls-1" x="-344.73" y="-432.99" width="806.99" height="537.99"/></clipPath><clipPath id="clip-path-6"><rect class="cls-1" x="-447.4" y="-307.12" width="399.62" height="269.45"/></clipPath><clipPath id="clip-path-7"><rect class="cls-1" x="-450.7" y="-424.12" width="981.54" height="521.22"/></clipPath><clipPath id="clip-path-8"><rect id="SVGID-2" data-name="SVGID" class="cls-1" x="37.09" y="-435.62" width="531.89" height="535.36" transform="translate(606.07 -335.88) rotate(-180)"/></clipPath><clipPath id="clip-path-9"><rect id="SVGID-3" data-name="SVGID" class="cls-1" x="37.37" y="-440.89" width="806.99" height="537.99" transform="translate(881.72 -343.78) rotate(-180)"/></clipPath><clipPath id="clip-path-10"><rect id="SVGID-4" data-name="SVGID" class="cls-1" x="-766.84" y="-432.99" width="806.99" height="537.99"/></clipPath></defs><g class="cls-2"><g id="Слой_1" data-name="Слой 1"><g class="cls-5"><g class="cls-6"><rect class="cls-7" x="-113.51" y="-27.06" width="585.09" height="136.62"/><g class="cls-8"><path class="cls-9" d="M103.64,15.35H14A89.65,89.65,0,0,0,103.64,105h0Z"/><path class="cls-9" d="M103.56,5.76h0V97l75.57-5.26a50.56,50.56,0,0,0,3.32-11.45C186.44,56,171,36.15,168.1,32.49,146,4.09,107.59,5.54,103.56,5.76Z"/><rect class="cls-7" x="103.64" y="15.35" width="89.65" height="89.65" rx="44.83"/><path class="cls-9" d="M148.47,40.16h0a20,20,0,0,0-20,20h0a20,20,0,0,0,20,20h0a20,20,0,0,0,20-20h0A20,20,0,0,0,148.47,40.16Z"/><path class="cls-7" d="M103.64-74.31h0A89.66,89.66,0,0,0,14,15.35h89.65Z"/><path class="cls-9" d="M103.64-35.63h0a51,51,0,0,0-51,51h51Z"/><rect class="cls-7" x="103.64" y="-74.31" width="89.65" height="89.65"/><rect class="cls-9" x="193.3" y="-74.31" width="89.65" height="89.65"/><path class="cls-7" d="M193.3-74.31H283a0,0,0,0,1,0,0V15.35a0,0,0,0,1,0,0h0A89.65,89.65,0,0,1,193.3-74.31v0A0,0,0,0,1,193.3-74.31Z"/></g><polygon class="cls-10" points="158.08 5.14 150.26 5.14 146.35 11.91 150.26 18.68 158.08 18.68 161.99 11.91 158.08 5.14"/><circle class="cls-11" cx="7.12" cy="-14.77" r="42.25"/></g></g><g class="cls-12"><g class="cls-13"><g class="cls-14"><rect class="cls-7" x="28.04" y="-17.51" width="585.09" height="136.62" transform="translate(641.18 101.61) rotate(-180)"/><polygon class="cls-9" points="531.47 21.28 102.77 21.28 65.56 47.01 7.68 47.01 7.68 -155.1 574.66 -155.1 574.66 6.62 552.68 6.62 531.47 21.28"/><rect class="cls-9" x="37.28" y="-315.92" width="575.77" height="322.45" transform="translate(650.33 -309.38) rotate(-180)"/></g><rect class="cls-7" x="-535.62" y="-27.06" width="585.09" height="136.62"/><path class="cls-7" d="M-49.5-74.31H49.28a0,0,0,0,1,0,0V24.48a0,0,0,0,1,0,0h0A98.78,98.78,0,0,1-49.5-74.31v0A0,0,0,0,1-49.5-74.31Z"/><rect class="cls-7" x="22.27" y="-89.75" width="148.76" height="162.93"/><polygon class="cls-10" points="-5.61 35.66 -20.57 35.66 -28.05 48.61 -20.57 61.57 -5.61 61.57 1.87 48.61 -5.61 35.66"/><circle class="cls-10" cx="38.64" cy="-167.16" r="256.96"/><path class="cls-17" d="M39.71,84.08l-.13-12.55A238,238,0,0,0,144.06,46.14l5.66,11.2A250.66,250.66,0,0,1,39.71,84.08ZM203-334.45a234.59,234.59,0,0,0-91.61-55.82l3.92-11.92a246.92,246.92,0,0,1,96.43,58.74l.24.23-8.78,9ZM-196-91.67a250.8,250.8,0,0,1-8.88-112.87l12.41,1.87a238.09,238.09,0,0,0,8.43,107.19Z"/><g class="cls-18"><path class="cls-19" d="M248.81-167.16C248.81-51.09,154.71,43,38.64,43c-278.78-11.07-278.7-409.31,0-420.34,116.07,0,210.17,94.1,210.17,210.17Z"/></g><path class="cls-7" d="M275.92-81.24h0a0,0,0,0,1,0,0V23.65a0,0,0,0,1,0,0H171a0,0,0,0,1,0,0v0A104.88,104.88,0,0,1,275.92-81.24Z" transform="translate(446.95 -57.59) rotate(180)"/></g></g><rect class="cls-9" x="-8.36" y="-2.28" width="216.72" height="104.56"/><path class="cls-20" d="M190.88,56.36a.52.52,0,0,0-.17-.19.72.72,0,0,0-.23-.12,13.55,13.55,0,0,1-9.83-9.84c-.06-.3-.12-.59-.16-.88a11.94,11.94,0,0,1-.1-1.79A12.4,12.4,0,0,1,181,40a8.51,8.51,0,0,1,.29-.85,12.67,12.67,0,0,1,.76-1.63,12,12,0,0,1,3.51-4,.65.65,0,0,0,.26-.41.68.68,0,0,0-.11-.48l-1.28-1.77q-.64-.87-1.32-1.74a112.18,112.18,0,0,0-9-10.27h0l0,0a.6.6,0,0,0-.33-.16h-.14a.66.66,0,0,0-.47.23,14,14,0,0,1-2.68,2.51,13,13,0,0,1-2.73,1.51l-.53.19a11.56,11.56,0,0,1-3,.62A14.25,14.25,0,0,1,156.57,22a10.9,10.9,0,0,1-2.09-1.4,13.62,13.62,0,0,1-4.16-6,1.3,1.3,0,0,1,0-.54.63.63,0,0,0-.17-.63.63.63,0,0,0-.63-.15L145.1,14.6a92.19,92.19,0,0,0-11.75,3.92.66.66,0,0,0-.36.56s0,0,0,0a.06.06,0,0,1,0,0,.73.73,0,0,0,0,.2,15.23,15.23,0,0,1,.81,2.48c.09.37.17.76.23,1.18s.08.57.11.87,0,.6.05.91a12.34,12.34,0,0,1-.53,4l-.18.52A11.91,11.91,0,0,1,132.17,32a12.4,12.4,0,0,1-.79,1,7.94,7.94,0,0,1-.57.59,7.11,7.11,0,0,1-1.09.77,9.25,9.25,0,0,1-1.69.76l-.46.15a16.79,16.79,0,0,1-6.69.43,9.38,9.38,0,0,1-1.93-.44.65.65,0,0,0-.81.37c-.76,1.93-1.45,3.86-2,5.81a76.6,76.6,0,0,0-2,7.79q-.2,1-.36,2a.68.68,0,0,0,.12.48.65.65,0,0,0,.42.26,24.43,24.43,0,0,1,6.84,2.1,11,11,0,0,1,2.79,1.83,5.61,5.61,0,0,1,.48.51,4.73,4.73,0,0,1,.71,1.07c.09.19.16.38.23.57a5,5,0,0,1,.2,1.06,8.63,8.63,0,0,1-.15,2.19,15.13,15.13,0,0,1-5.16,8.81.66.66,0,0,0-.23.42.73.73,0,0,0,.13.47c.67.87,1.39,1.73,2.16,2.59a61.22,61.22,0,0,0,8.37,7.58.55.55,0,0,0,.24.12l.13,0h.13a.65.65,0,0,0,.43-.28,7.68,7.68,0,0,1,.57-.77,8.39,8.39,0,0,1,.65-.68l.1-.09a9.63,9.63,0,0,1,1.35-1c.39-.25.79-.46,1.2-.67s.83-.4,1.25-.57l.84-.34a10.12,10.12,0,0,1,4.49-.93,6.08,6.08,0,0,1,2.39.79A9.36,9.36,0,0,1,146.21,78a11.63,11.63,0,0,1,1.51,1.71,11,11,0,0,1,.9,1.46c.18.34.34.68.49,1s.27.71.38,1.08a12.12,12.12,0,0,1,.51,2.8.62.62,0,0,0,.4.56.6.6,0,0,0,.24,0h0c1.92,0,3.84-.17,5.78-.35l1.95-.21q3.9-.47,8-1.31a.73.73,0,0,0,.19-.07.79.79,0,0,0,.15-.12.67.67,0,0,0,.17-.36c.06-.53.12-1,.17-1.57.11-.92.21-1.81.33-2.69a20.5,20.5,0,0,1,1-4.19,11.74,11.74,0,0,1,.68-1.48,10.7,10.7,0,0,1,1.49-2.08,9.08,9.08,0,0,1,.71-.68l.37-.3a7.43,7.43,0,0,1,.77-.52,6.2,6.2,0,0,1,1.23-.57,7.07,7.07,0,0,1,1.79-.38,9.57,9.57,0,0,1,1.85,0l.62.09c.42.07.84.17,1.26.28l.64.18c.85.26,1.71.58,2.58.94l.65.27.66.28a.59.59,0,0,0,.22,0,.63.63,0,0,0,.58-.31c1-1.67,1.94-3.43,2.8-5.25s1.65-3.72,2.36-5.65q.71-1.93,1.29-3.9a.74.74,0,0,0,0-.26A.75.75,0,0,0,190.88,56.36Zm-47-7.54a13.81,13.81,0,0,1,5.5-8.25,9.79,9.79,0,0,1,9.65-.77,12.07,12.07,0,0,1,6.22,10.08,11.26,11.26,0,0,1-7.44,10.8,11.48,11.48,0,0,1-12.54-4A8.93,8.93,0,0,1,143.62,53,10.13,10.13,0,0,1,143.9,48.82Z"/><path class="cls-20" d="M67.87,14.47h16L79.39,36l11.06,7.37L86,64.21,61,46.76Zm31.58-.9h16.1L100.08,86.43,87,72Z"/><path class="cls-20" d="M15.88,14.47h16L27.39,36l11.07,7.37L34.05,64.21,9,46.76Zm31.57-.9h16.1L48.08,86.43,35,72Z"/></g></g></svg>