<svg id="Слой_1" data-name="Слой 1" xmlns="http://www.w3.org/2000/svg" xmlns:xlink="http://www.w3.org/1999/xlink" viewBox="0 0 82 82"><defs><style>.cls-1{fill:none;}.cls-2{clip-path:url(#clip-path);}.cls-3{clip-path:url(#clip-path-2);}.cls-4{clip-path:url(#clip-path-3);}.cls-5{fill:#fff;}</style><clipPath id="clip-path"><rect class="cls-1" x="195.93" y="-149.55" width="399.62" height="269.45"/></clipPath><clipPath id="clip-path-2"><rect class="cls-1" x="192.63" y="-266.55" width="981.54" height="521.22"/></clipPath><clipPath id="clip-path-3"><rect id="SVGID" class="cls-1" x="93.04" y="-402.48" width="1176.31" height="784.2"/></clipPath></defs><path class="cls-5" d="M35.72,50.93c-1.2-.21-2.3-.37-3.39-.58a20.08,20.08,0,0,1-7.28-2.8c-3.88-2.55-5.8-6.31-6.53-10.76a23.23,23.23,0,0,1-.19-7.11,14,14,0,0,1,3.37-7.35,1,1,0,0,0,.23-1.07,13.32,13.32,0,0,1,.44-9.14.9.9,0,0,1,.74-.44,16.6,16.6,0,0,1,3.88.79c2,.8,3.77,1.9,5.65,2.85a1.66,1.66,0,0,0,1,.17,37.21,37.21,0,0,1,18.22,0,1.44,1.44,0,0,0,1.24-.25,21.24,21.24,0,0,1,7.35-3.36c3.1-.59,2.62-.52,3.33,2a13,13,0,0,1-.11,7.46,1,1,0,0,0,.11.76,15.32,15.32,0,0,1,3.65,11.72,21.64,21.64,0,0,1-1.92,8.07c-2.06,4.2-5.56,6.6-9.94,7.82-1.82.51-3.7.8-5.57,1.2,0,0,0,0,0,.06,1.91,2,2.4,4.52,2.4,7.18,0,3.24,0,6.48-.07,9.72,0,1.35.19,1.64,1.56,2.23H31.78c.2-.1.47-.14.61-.3.31-.36.79-.76.8-1.16.08-2.23,0-4.47,0-6.74-.94.12-1.8.26-2.67.33a10.64,10.64,0,0,1-8-2.15,7.92,7.92,0,0,1-2.38-3.24A11.38,11.38,0,0,0,15.56,51a3.8,3.8,0,0,1-.81-.69c-.63-.66-.48-1.23.43-1.3a6.72,6.72,0,0,1,2.45.21,7.94,7.94,0,0,1,4.52,3.73A7.77,7.77,0,0,0,27,56.72,9.57,9.57,0,0,0,33,56.1a.72.72,0,0,0,.37-.45A8.75,8.75,0,0,1,35.72,50.93Z"/></svg>