<svg id="Слой_1" data-name="Слой 1" xmlns="http://www.w3.org/2000/svg" viewBox="0 0 82 82"><defs><style>.cls-1{fill:#fff;}</style></defs><path class="cls-1" d="M68.64,14a7.21,7.21,0,0,0-5.29-2.21H19.89a7.53,7.53,0,0,0-7.49,7.5V62.73a7.53,7.53,0,0,0,7.49,7.5H63.35a7.55,7.55,0,0,0,7.5-7.5V19.27A7.23,7.23,0,0,0,68.64,14ZM33.38,32.84a12,12,0,0,1,16.6,0,11.13,11.13,0,0,1,0,16.09,12,12,0,0,1-16.6,0,11.13,11.13,0,0,1,0-16.09ZM64.23,61.17a2.19,2.19,0,0,1-.69,1.65,2.24,2.24,0,0,1-1.63.67H21.23a2.27,2.27,0,0,1-2.32-2.32V36.51h5.36a16.29,16.29,0,0,0-.76,5A16.72,16.72,0,0,0,28.84,54a17.79,17.79,0,0,0,12.82,5.15,18.26,18.26,0,0,0,9.14-2.36,17.79,17.79,0,0,0,6.62-6.41,16.89,16.89,0,0,0,2.43-8.85,16.29,16.29,0,0,0-.76-5h5.14V61.17Zm0-34a2.57,2.57,0,0,1-.76,1.86,2.53,2.53,0,0,1-1.87.76H55a2.5,2.5,0,0,1-1.86-.76,2.54,2.54,0,0,1-.77-1.86V20.91a2.56,2.56,0,0,1,.77-1.85A2.48,2.48,0,0,1,55,18.28H61.6a2.51,2.51,0,0,1,1.87.78,2.59,2.59,0,0,1,.76,1.85Z"/></svg>