<svg id="Слой_1" data-name="Слой 1" xmlns="http://www.w3.org/2000/svg" xmlns:xlink="http://www.w3.org/1999/xlink" viewBox="0 0 200 100"><defs><style>.cls-1,.cls-6{fill:none;}.cls-2{clip-path:url(#clip-path);}.cls-3{clip-path:url(#clip-path-2);}.cls-4{clip-path:url(#clip-path-3);}.cls-5{clip-path:url(#clip-path-4);}.cls-6{stroke:#fff;stroke-width:0.78px;}.cls-6,.cls-9{stroke-miterlimit:10;}.cls-7{fill:#fff;}.cls-8{fill:#f3e600;}.cls-9{font-size:49.92px;fill:#3f3f3f;stroke:#1d1d1b;stroke-width:2px;font-family:Bacotu;}.cls-10{fill:#12100b;}</style><clipPath id="clip-path"><rect class="cls-1" x="432.26" y="-419.24" width="399.62" height="269.45"/></clipPath><clipPath id="clip-path-2"><rect class="cls-1" x="428.96" y="-536.24" width="981.54" height="521.22"/></clipPath><clipPath id="clip-path-3"><rect class="cls-1" x="10.15" y="-419.24" width="399.62" height="269.45"/></clipPath><clipPath id="clip-path-4"><rect class="cls-1" x="6.85" y="-536.24" width="981.54" height="521.22"/></clipPath></defs><g class="cls-4"><g class="cls-5"><polygon class="cls-6" points="163.28 44.8 159.78 44.8 158.02 47.83 159.78 50.87 163.28 50.87 165.03 47.83 163.28 44.8"/></g></g><rect class="cls-7" x="-4.24" y="0.84" width="216.72" height="104.56"/><rect class="cls-8" x="101.19" y="30.79" width="17.53" height="18.57"/><rect class="cls-8" x="150.75" y="58.32" width="17.53" height="18.57"/><text class="cls-9" transform="translate(76.49 49.85)">żółty</text><text class="cls-9" transform="translate(112.64 76.91)">słoń</text><path class="cls-8" d="M18.11,54.34a17.56,17.56,0,0,0,2.06.89c.33,0,.72,0,1.12,0a10.39,10.39,0,0,0,1.35-.06A9.27,9.27,0,0,0,24,55a9.29,9.29,0,0,0,1.16-.25,8,8,0,0,0,.83-.23l.32-.09-.27.21c-.17.12-.42.28-.74.46a11.22,11.22,0,0,1-1.16.46,10.06,10.06,0,0,1-1.41.27A8.75,8.75,0,0,0,24,56a8.91,8.91,0,0,0,7.54-4.47,10.47,10.47,0,0,1-1.15,1.26A11.76,11.76,0,0,1,27.07,55a10.53,10.53,0,0,1-1.23.45l-.48.14.46-.18A8.68,8.68,0,0,0,27,54.81a11,11,0,0,0,3.05-2.41,11.2,11.2,0,0,0,2-3.25c.09-.23.16-.44.23-.63-.13.2-.26.4-.4.6a14.11,14.11,0,0,1-1.51,1.76,13.11,13.11,0,0,0,1.07-2,12.76,12.76,0,0,0,.68-2.12,2.47,2.47,0,0,0-1.92-.83,2.9,2.9,0,0,0-.66.07C28,54.23,18.11,54.34,18.11,54.34Zm9-3.09.15-.16c.1-.09.23-.24.39-.41s.32-.38.51-.6a8,8,0,0,0,.51-.74,7.81,7.81,0,0,0,.46-.77c.12-.26.25-.5.34-.72s.17-.39.21-.52l.08-.2,0,.21a3.27,3.27,0,0,1-.1.57,5.33,5.33,0,0,1-.25.78,6.66,6.66,0,0,1-.44.83,7.57,7.57,0,0,1-.57.74,5,5,0,0,1-.61.56,3.28,3.28,0,0,1-.47.32Z"/><path class="cls-8" d="M30.23,44.93A3.5,3.5,0,0,1,33,46.18l.21-1.61.19.68c0-.21,0-.43,0-.63,0-.5.07-1,.12-1.4.18-1.73.42-2.87.42-2.87s.09,1.16.15,2.89c0,.43,0,.9,0,1.39s0,1,0,1.55,0,1.1.05,1.66,0,1.14,0,1.71l0,1.13c.19,2.55.47,5.56.91,8.64,1.16,8.13,3.46,14.8,6,18.29,2.12,3,4.72,6,7.43,7.36a6.49,6.49,0,0,0,2.08.37c3.25,0,5.37-2.7,5-4-.3-1.12-1.27-2.12-2.16-2.12a1.07,1.07,0,0,0-.39.07,1,1,0,0,0-.14.31,1.38,1.38,0,0,0,0,.85,1.67,1.67,0,0,0,.44.79,2,2,0,0,0,.65.53,1.7,1.7,0,0,0,.59.24,1,1,0,0,0,.18,0l.07,0-.07,0-.19,0a1.93,1.93,0,0,1-.71,0,2.41,2.41,0,0,1-.92-.46,2.21,2.21,0,0,1-.4-.46l-.09.48-.23-.39s0,.06,0,.09a5.93,5.93,0,0,0-.07.83.17.17,0,0,0,0,.07l.05,0a.79.79,0,0,0,.33.05,1,1,0,0,0,.36-.1.7.7,0,0,0,.15-.09.64.64,0,0,1-.09.17,1.25,1.25,0,0,1-.75.52h-.06V83a4.42,4.42,0,0,0,0,.54v.22l-.13-.18c-.06-.12-.15-.29-.24-.51a5.65,5.65,0,0,1-.2-.79c0-.18,0-.38,0-.59-.21.38-.57.62-1.46.62a1.92,1.92,0,0,1-.61-.11,1.05,1.05,0,0,0-.24.27h0l.44.54-.72-.08a1,1,0,0,0-.08.14l.47.53-.67,0a1.27,1.27,0,0,0-.08.23,3.12,3.12,0,0,0-.14.34l-.07.14-.06-.14c0-.09-.07-.21-.11-.37a5,5,0,0,1,0-.56,3.21,3.21,0,0,1,.19-.63A2.24,2.24,0,0,1,49,82a1.29,1.29,0,0,1,.16-.09,8.44,8.44,0,0,1-2.28-2.56,2.47,2.47,0,0,0-.29.22l.49.88-.92-.5a.27.27,0,0,0-.08.07l1,1.67-1.47-1.27-.13.16a2.26,2.26,0,0,0-.23.26l-.1.11,0-.15a2.91,2.91,0,0,1,0-.38,2.55,2.55,0,0,1,.18-.5,3.57,3.57,0,0,1,.38-.49,3.32,3.32,0,0,1,.53-.33l.36-.09a15.82,15.82,0,0,1-2-3.92,2.68,2.68,0,0,0-.32.22,5.15,5.15,0,0,0-.45.28l0,.39-.36-.17-.23.15a3.9,3.9,0,0,0-.35.19l1.2,2.14-1.75-1.84-.19.12a3.43,3.43,0,0,0-.39.2l-.15.07.06-.16c0-.1.13-.23.23-.39a5.71,5.71,0,0,1,.42-.47c.18-.15.38-.29.58-.43s.45-.21.66-.29S44,75,44.22,75a2.89,2.89,0,0,1,.39,0,27.19,27.19,0,0,1-1-3.88l0,0,0-.07c-1.26-7-.44-15.27.28-19.76,0-.56,0-1.12.05-1.69s0-1.14,0-1.71L44,46.18c0-.54,0-1.06,0-1.55s0-1,0-1.39c.06-1.73.14-2.89.14-2.89a28.64,28.64,0,0,1,.43,2.87c0,.41.08.86.12,1.34l.15-1.8.39,2.66.28-1.1.31,1.23A3.71,3.71,0,0,1,48,44.92h0a4,4,0,0,1,.53,0c-.07-.69-.16-1.28-.26-1.78s-.32-.78-.5-1.27c-.13-.34-.27-.72-.41-1.11s-.29-.81-.42-1.25-.3-.88-.43-1.34-.28-.93-.41-1.42-.21-1-.28-1.47a8.22,8.22,0,0,1-.06-1.48,6.25,6.25,0,0,1,.65-2.54,5,5,0,0,1,1.09-1.46,3.28,3.28,0,0,1,.39-.32l.15-.1-.11.14c-.07.09-.16.23-.28.4a7,7,0,0,0-.71,1.56c0,.11-.06.24-.09.36l.09-.14a4.27,4.27,0,0,1,.64-.53l.59-.32a4.73,4.73,0,0,0,.43-.2l.17-.07-.08.17-.29.4-.2.2a.64.64,0,0,1,.4.24.61.61,0,0,1,.11.23,1.94,1.94,0,0,0,.13-.42,1.37,1.37,0,0,0,.05-.21,1,1,0,0,1,.08.21A2.22,2.22,0,0,1,49,32a2.41,2.41,0,0,1-.23.84,5,5,0,0,1-.58.77,6.8,6.8,0,0,0-.6.62,2,2,0,0,0-.38.59,1.2,1.2,0,0,0-.12.5,1.3,1.3,0,0,0,0,.22,1.8,1.8,0,0,1-.13-.19,1.35,1.35,0,0,1-.11-.61,2.18,2.18,0,0,1,.27-.83,5.58,5.58,0,0,1,.59-.75l.1-.1a.76.76,0,0,1-.79-.23.16.16,0,0,1,0-.07,2.19,2.19,0,0,0-.22.47,1.8,1.8,0,0,0-.14.44v0a.57.57,0,0,0,0,.13,10.31,10.31,0,0,0,.13,1.33c.07.45.18.91.3,1.37s.24.93.36,1.39.23.91.34,1.34l.53-2,.11,1.56c.07-.2.13-.41.19-.63.13-.37.24-.78.34-1.18a11.58,11.58,0,0,0,.29-1.2,8.76,8.76,0,0,0,.22-1.06c.08-.31.13-.58.16-.77l.06-.29.06.29c0,.19.07.47.1.8a11.1,11.1,0,0,1,0,1.12c0,.2-.06.41-.09.62a14.24,14.24,0,0,0,.44-2.25,11.35,11.35,0,0,0,0-3.54,6.48,6.48,0,0,0-.38-.8,5.53,5.53,0,0,0-.67-1,9,9,0,0,0-.83-.92l-.88-.89a10.13,10.13,0,0,1-1.49-1.75,4.89,4.89,0,0,1-.67-1.5,2.8,2.8,0,0,1-.08-.44l0-.16s.09.2.28.53a7.05,7.05,0,0,0,.94,1.22c.34.35.75.71,1.2,1.1L47,25.45l-.49-.69-.32-.51L46.07,24l.2.12.5.35.65.56.35.38-.17-.26c-.24-.4-.52-.82-.82-1.23s-.56-.84-.85-1.22-.54-.74-.78-1-.42-.56-.56-.74l-.22-.29.3.2c.19.13.45.33.75.58s.62.58,1,.93.64.78.95,1.2l0,.06a11.52,11.52,0,0,0-2.74-3.85,11.51,11.51,0,0,0-5.52-1.23,12.8,12.8,0,0,0-4.53.78,7.2,7.2,0,0,0-2.16,2.5l.53-.44.27-.19-.18.28c-.12.17-.29.42-.48.73s-.43.64-.66,1-.39.62-.57.95-.35.89-.49,1.28c.08-.11.16-.23.23-.35s.32-.43.44-.61.25-.33.32-.44l.14-.17,0,.22c0,.13-.06.32-.11.55s-.16.47-.27.74c0,.09-.1.19-.15.29l.66-.63A6.58,6.58,0,0,0,33,23.84c.19-.33.28-.53.28-.53v.16c0,.1,0,.25-.08.44a4.72,4.72,0,0,1-.68,1.5A10.51,10.51,0,0,1,31,27.16l-.89.89a10.29,10.29,0,0,0-.83.92,6.1,6.1,0,0,0-.67,1,6.76,6.76,0,0,0-.48,1.07l-.15.47a14.69,14.69,0,0,0,.09,2.8,14.25,14.25,0,0,0,.45,2.24q-.07-.37-.12-.72c0-.38,0-.72,0-1s0-.55.06-.73l.05-.27.08.27c0,.16.09.4.18.69s.14.61.23,1,.18.73.28,1.09.18.75.28,1.1V38l.3-1.56.29,1.42a13,13,0,0,0,1.23-2.26c0-.14.06-.28.08-.42a10.31,10.31,0,0,0,.13-1.33v-.06a.32.32,0,0,0,0-.09,2.39,2.39,0,0,0-.14-.44,2.19,2.19,0,0,0-.22-.47.16.16,0,0,1,0,.07.76.76,0,0,1-.79.23l.1.1a6.51,6.51,0,0,1,.59.75,2.37,2.37,0,0,1,.27.83,1.35,1.35,0,0,1-.11.61,1.12,1.12,0,0,1-.14.19.82.82,0,0,0,0-.22,1.2,1.2,0,0,0-.12-.5,2,2,0,0,0-.38-.59,8.48,8.48,0,0,0-.6-.62,5,5,0,0,1-.58-.77,2.69,2.69,0,0,1-.24-.84,2.15,2.15,0,0,1,.07-.59,1,1,0,0,1,.08-.21,1.37,1.37,0,0,0,.05.21,1.94,1.94,0,0,0,.13.42.49.49,0,0,1,.11-.23.64.64,0,0,1,.4-.24l-.2-.2c-.13-.17-.23-.3-.29-.4l-.09-.17.18.07a4.73,4.73,0,0,0,.43.2l.59.32a3.77,3.77,0,0,1,.63.53l.14.19c0-.14-.07-.28-.11-.41A7,7,0,0,0,30.59,30c-.12-.17-.21-.31-.28-.4l-.11-.14.14.1a3.21,3.21,0,0,1,.4.32,5.23,5.23,0,0,1,1.09,1.46,6.25,6.25,0,0,1,.65,2.54,8.22,8.22,0,0,1-.06,1.48c-.07.5-.17,1-.28,1.47s-.27,1-.41,1.42-.29.9-.43,1.34-.28.85-.42,1.25-.28.77-.41,1.11-.32.82-.45,1.15l-.06.31c.06-.13.13-.25.2-.38a21.08,21.08,0,0,1,1.14-1.84,21.34,21.34,0,0,0-.68,2C30.43,43.86,30.3,44.54,30.23,44.93ZM55.09,81.74l-.1-.1c-.06-.06-.14-.15-.25-.25a4.31,4.31,0,0,0-.3-.34,4,4,0,0,0-.34-.38,3,3,0,0,0-.31-.4,4.15,4.15,0,0,0-.28-.36,3.22,3.22,0,0,0-.21-.29l-.07-.12h.14l.36.1a4.08,4.08,0,0,1,.45.24,5.06,5.06,0,0,1,.43.39,5.7,5.7,0,0,1,.31.5,4.6,4.6,0,0,1,.16.49c0,.15,0,.28,0,.36ZM43,19.8l-.35,0c-.22,0-.53-.06-.9-.07l-.46,0-.41,1.47-.49-1.5H39.25a9.15,9.15,0,0,0-.25,1,9.59,9.59,0,0,0-.12,1.16,8.83,8.83,0,0,1-.38-1.13,10,10,0,0,1-.2-1c-.27,0-.52,0-.77.06h-.18L36.8,20.8l-.35-1-.19,0-.9.12L35,20l.31-.15c.21-.09.5-.21.86-.33s.81-.22,1.28-.31,1-.12,1.49-.15,1,0,1.5.07.92.15,1.29.24.67.21.88.29Zm1,3.81-.42-.1a3.72,3.72,0,0,0-.48-.12c-.19-.05-.4-.09-.63-.13a7.76,7.76,0,0,0-.8-.14c-.06.15-.16.39-.24.65a6.39,6.39,0,0,0-.21.9,9.17,9.17,0,0,1-.29-.91c-.06-.27-.11-.55-.14-.74A14.09,14.09,0,0,0,39.14,23l-.51,1.54L38.27,23c-.33,0-.67.05-1,.09l-.52.07-.41,2.47-.55-2.29-.08,0c-.23,0-.44.09-.62.14a3.24,3.24,0,0,0-.48.13l-.42.11.37-.23a4.6,4.6,0,0,1,.45-.23c.17-.09.37-.19.59-.28a13.45,13.45,0,0,1,1.57-.48,13.85,13.85,0,0,1,1.88-.21,14.12,14.12,0,0,1,1.88.17,13.46,13.46,0,0,1,1.58.44l.6.26a4.6,4.6,0,0,1,.45.23ZM45.71,32c-.06.18-.13.33-.16.44l-.06.18v-.19a2.34,2.34,0,0,1,0-.48,4,4,0,0,1,.16-.67,5.62,5.62,0,0,1,.3-.73,7.57,7.57,0,0,1,.42-.67,4.82,4.82,0,0,1,.45-.52,4.19,4.19,0,0,1,.36-.32l.15-.1-.1.15c-.07.09-.16.23-.27.39s-.22.36-.36.56-.25.43-.36.66-.23.46-.32.68S45.77,31.77,45.71,32Zm.95,8.95L46,39.08c-.21-.63-.41-1.27-.57-1.88a10.63,10.63,0,0,1-.26-1.71,6.13,6.13,0,0,1,0-1.21c0-.29.08-.45.08-.45a4,4,0,0,0,0,.45,8.4,8.4,0,0,0,.08,1.2,12.62,12.62,0,0,0,.35,1.65c.17.59.38,1.22.6,1.85s.45,1.25.66,1.84.39,1.14.55,1.61.28.88.36,1.15L48,44l-.19-.41c-.11-.27-.29-.65-.47-1.11S46.89,41.5,46.66,40.91Zm-1.89-3.39.1.17c.05.11.14.26.22.45s.2.4.29.64.19.5.29.76.17.52.25.77.13.48.19.68.08.37.11.49l0,.19-.1-.17c0-.1-.14-.26-.22-.45s-.2-.4-.29-.64l-.29-.76c-.09-.26-.17-.52-.25-.77s-.14-.48-.19-.68a3.85,3.85,0,0,1-.11-.49ZM39.15,72.24l.13-.16c.09-.09.22-.22.38-.36s.38-.27.61-.42.51-.24.78-.35.56-.14.82-.19a7.06,7.06,0,0,1,.74-.05c.22,0,.4,0,.53.05l.19,0-.18.08a5.12,5.12,0,0,0-.48.19l-.53.18.28,1.7-.85-1.5-.31.12a7.32,7.32,0,0,0-.75.25h0l.71,2.81L39.93,72l-.09,0-.5.14Zm-1.81-5.46.19-.14.53-.32.81-.33c.3-.08.63-.16,1-.23s.68-.05,1-.05.62.05.87.09l.6.16.22.08-.23,0c-.15,0-.36,0-.6.08l-.62.08,0,2.28-.9-2.16-.27,0a3.4,3.4,0,0,0-.46.06l-.19,1.12-.67-1-.45.08-.6.08Zm-1.27-6.26.24-.13.66-.26a9.39,9.39,0,0,1,1-.24c.36,0,.76-.09,1.15-.11s.78,0,1.15.09.7.15,1,.23.51.19.66.26l.24.12h-.27c-.16,0-.41,0-.69,0l-.51,0-.53,3.11-.4-3.12c-.21,0-.42,0-.63,0s-.45,0-.67,0L38,61.78l-.39-1.31a5.6,5.6,0,0,0-.6,0l-.7,0Zm-.66-6.6.29-.14c.18-.07.45-.18.77-.29s.72-.18,1.14-.26.88-.09,1.33-.11.92,0,1.34.09.81.16,1.14.25.59.21.78.28l.28.13h-.31c-.2,0-.48,0-.81,0s-.64,0-1,0l-.44.93-.45-.95H39c-.39,0-.77,0-1.13,0l-.55,2.79-.37-2.76-.36,0c-.34,0-.62,0-.81,0Zm-.23-6.6.31-.14c.21-.08.5-.2.86-.31s.8-.19,1.27-.28,1-.1,1.48-.12,1,.05,1.48.1.9.17,1.27.26.66.22.86.3l.32.14-.35,0c-.19,0-.46,0-.78,0l-.53,2.68L41,47.15h-.43c-.39,0-.8,0-1.22,0l-.63,1.5-.27-1.5-.74,0c-.45,0-.88,0-1.25.08s-.68,0-.9.06Zm7.59-6.58c-.22,0-.53,0-.9-.05-.22,0-.47,0-.73,0l-.56,2.72-.35-2.74c-.34,0-.69,0-1,0s-.91,0-1.34,0l-.55,1.64L37,40.68l-.47,0-.9.07-.35,0,.32-.15c.2-.08.5-.19.86-.3s.8-.2,1.26-.29,1-.1,1.48-.12,1,0,1.49.11.9.16,1.26.26.66.22.87.29l.32.15ZM34.33,35l.41-.16c.26-.09.64-.21,1.1-.34s1-.21,1.6-.3,1.23-.11,1.87-.13,1.27,0,1.86.1,1.14.18,1.61.29.84.23,1.11.31l.41.15-.44,0c-.27,0-.67-.06-1.14-.08l-.79-.05-.39,1.48-.46-1.51c-.51,0-1,0-1.57,0l-.41,3.3-.47-3.3h-.5l-.26,1.08-.31-1.05h-.07l-.66,0-.5,1.62-.4-1.55h0L34.76,35Zm-.61-5.94.44-.22.52-.22c.21-.08.44-.17.7-.25a14.75,14.75,0,0,1,1.8-.45,20.12,20.12,0,0,1,2.12-.19c.73,0,1.45.08,2.12.16s1.29.26,1.81.41l.7.24.53.21.45.21-.49-.09-.55-.1-.12,0-.52,1.51-.08-1.59h0a10,10,0,0,0-1.07-.14l-.69,3.2-.26-3.28c-.44,0-.9,0-1.36,0l-.34,3-.57-3c-.37,0-.73,0-1.09,0l-.39,1-.46-1c-.47,0-.91.1-1.3.17l-.17,1.68L35,28.82l-.28.05L34.2,29Zm-1,2.58-.08-.12c-.05-.09-.14-.2-.23-.34s-.2-.3-.31-.47a5.71,5.71,0,0,0-.38-.52c-.12-.17-.26-.35-.39-.5s-.25-.31-.36-.43-.2-.24-.27-.31l-.09-.12.14.07a2.31,2.31,0,0,1,.34.22,3.5,3.5,0,0,1,.45.37l.45.5c.13.19.25.39.36.57a5.34,5.34,0,0,1,.23.53c.06.16.09.31.12.4Zm-.87,8.42.09-.28c.07-.18.14-.45.24-.76s.18-.69.28-1.08.18-.82.25-1.25.13-.85.16-1.26.07-.78.08-1.11,0-.6,0-.8v-.3l.06.3a7.56,7.56,0,0,1,.1.79,8.26,8.26,0,0,1,0,1.14c0,.41-.06.86-.12,1.3s-.19.87-.3,1.27a8,8,0,0,1-.39,1.06,6.14,6.14,0,0,1-.35.72Z"/><path class="cls-8" d="M48,32.48l.07-.11.08-.09.1-.08a.21.21,0,0,1,.08-.06l0,0,0,0a.35.35,0,0,1,0,.12.41.41,0,0,1,0,.15.6.6,0,0,1-.08.16l-.13.11a.44.44,0,0,1-.15.05h-.16l0,0a.63.63,0,0,1,0-.09A.6.6,0,0,1,48,32.48Z"/><path class="cls-8" d="M30.36,32.74a.48.48,0,0,1-.15,0l-.15-.1-.12-.13a1.56,1.56,0,0,1-.06-.15.26.26,0,0,1,0-.12v-.05h.05l.11,0,.12.07.12.09.11.11s.05.08.08.11a.45.45,0,0,1,.05.1l0,0h-.17Z"/><path class="cls-8" d="M48,50.85c.34.42.59.68.59.68s-.29-.21-.7-.57a10.89,10.89,0,0,1-1.39-1.45l-.16-.2A13.94,13.94,0,0,0,47,50.55a12.67,12.67,0,0,0,1.16,1.57,13,13,0,0,0,1.42,1.36,10.72,10.72,0,0,0,1.42,1,6.24,6.24,0,0,0,.61.33l.48.23.43.18L52,55.06a4.83,4.83,0,0,1-.5-.19c-.2-.07-.41-.16-.65-.27a11.84,11.84,0,0,1-1.53-.87,12.29,12.29,0,0,1-1.59-1.27,13,13,0,0,1-1.36-1.53L46,50.31C47,52.41,49.53,56,54.19,56a11.09,11.09,0,0,0,3.44-.59c-.4.05-.82.09-1.24.1s-1.12-.06-1.63-.12A14.13,14.13,0,0,1,53.38,55a9.13,9.13,0,0,1-.94-.36l-.34-.17.38,0c.23,0,.57.08,1,.12a13.12,13.12,0,0,0,1.37.11,13.37,13.37,0,0,0,1.56,0,13.3,13.3,0,0,0,1.56-.06,12.79,12.79,0,0,0,1.37-.13l.27,0,.51-.25S52,54.25,49.27,48c.16.69.33,1.25.33,1.25a19.61,19.61,0,0,1-.93-1.73c-.3-.64-.54-1.31-.66-1.64h0a2.42,2.42,0,0,0-2.07,1c0,.13.1.31.17.52A11.09,11.09,0,0,0,48,50.85Zm.19-1.12a2.51,2.51,0,0,1-.28-.21,3.53,3.53,0,0,1-.37-.33l-.37-.43-.31-.47a4.38,4.38,0,0,1-.21-.45,1.35,1.35,0,0,1-.12-.33l0-.13.09.1c.05.07.14.16.23.27l.29.38c.11.14.22.29.34.43a3.84,3.84,0,0,0,.32.44c.11.14.2.29.28.4s.15.22.2.28l.07.12Z"/><path class="cls-8" d="M7.49,28.84c0,.29,0,.58,0,.87l2-1.23L7.63,30.75a.78.78,0,0,1,0,.16l1.13-.7L7.83,31.9a24,24,0,0,0,2.39,6.32l1-.78L11,38l.26-.24a14.6,14.6,0,0,1,1.49-1.14,15,15,0,0,0-1.11,1.47,11.9,11.9,0,0,0-.75,1.3,24.24,24.24,0,0,0,6.88,7.48l2.6-3.32-1.78,3.72,1-.92-.26,1.43a12,12,0,0,0,1.72.71,32.14,32.14,0,0,0,5.1.25,20.93,20.93,0,0,0,.7-7.2c-.44-3.18-1.17-3.1-1.52-6.14a3.11,3.11,0,0,0-.84.31,3.39,3.39,0,0,0-.82.62,2.87,2.87,0,0,0-.31.36,3,3,0,0,1,.18-.45,4,4,0,0,1,.64-.92,3.9,3.9,0,0,1,.93-.72l.14-.07c0-.16,0-.32,0-.5A8,8,0,0,0,24,30.33a2.91,2.91,0,0,0-.35-.2,10.47,10.47,0,0,0-5.72-1.23,10.82,10.82,0,0,0-1.61.27,10.41,10.41,0,0,0-1.52.5,11.31,11.31,0,0,0-2.47,1.43,10.34,10.34,0,0,0-1.48,1.4c-.17.18-.29.34-.37.44l-.13.16.11-.17c.08-.11.18-.28.33-.48a10.46,10.46,0,0,1,1.38-1.55,11.47,11.47,0,0,1,2.41-1.71,13.48,13.48,0,0,1,1.54-.67,13.67,13.67,0,0,1,1.7-.44,11.75,11.75,0,0,1,1.76-.16,12.11,12.11,0,0,1,1.72.12c.3,0,.59.1.88.16-.23-.15-.47-.3-.73-.44a16.85,16.85,0,0,0-2.06-1s.77.12,1.66.36a14.86,14.86,0,0,0-2.86-1.77l8.25,2.22-.69-.67,1.2.39c-.05-.13-.11-.28-.18-.42A7,7,0,0,0,26,25.71c-.25-.3-.44-.49-.44-.49s.24.1.6.29a6.66,6.66,0,0,1,1.24.86l0,0c.28-1,.62-2,1-3a3.05,3.05,0,0,1,.52-1,22,22,0,0,0-3.6-.42,23.12,23.12,0,0,0-3.78.18c-.51.07-.94.14-1.24.2l-.47.1.45-.17c.29-.1.71-.24,1.21-.38a23.5,23.5,0,0,1,2.7-.61l-.89,0a31.22,31.22,0,0,0-3.7.53c-1,.2-1.66.39-1.66.39s.64-.24,1.62-.54a30.79,30.79,0,0,1,3.64-.86,32.14,32.14,0,0,0-3.72.34c-.75.12-1.49.28-2.22.46s-1.42.43-2.09.68a17.08,17.08,0,0,0-3.45,1.82A13,13,0,0,0,9.64,26c-.24.23-.4.44-.53.58l-.18.21.17-.23c.11-.14.26-.36.49-.61a14,14,0,0,1,2-2A17.8,17.8,0,0,1,15,21.85a21.22,21.22,0,0,1,4.36-1.47A31.81,31.81,0,0,1,28,19.64a17.91,17.91,0,0,1,2.89.4,7.51,7.51,0,0,1,.81.21l.13,0a11,11,0,0,1,.92-1A12,12,0,0,0,27,18.1a29.67,29.67,0,0,0-7.59,1.13C12.54,21.06,7.49,23.37,7.49,28.84Zm11.08-9.12.51-.15c.33-.09.79-.23,1.36-.35s1.24-.25,2-.35,1.49-.18,2.27-.23,1.55,0,2.28,0,1.4.09,2,.15,1.06.14,1.39.2l.53.1-.53,0C30,19,29.5,19,28.92,19s-1.25,0-2,0-1.5,0-2.26.06-1.54.1-2.26.18-1.38.16-1.95.25l-1.39.23Zm6.2,4.61c-.25-.11-.51-.21-.75-.3l-.67-.23-.49-.15-.19-.06h.2c.12,0,.31,0,.52,0a4.53,4.53,0,0,1,.72.14,7.4,7.4,0,0,1,.79.27,7.41,7.41,0,0,1,.74.4,4.22,4.22,0,0,1,.6.43,3.29,3.29,0,0,1,.37.35l.13.15-.17-.1L26.13,25c-.18-.11-.4-.21-.63-.33Zm-8.4,0,.37,0c.23,0,.57,0,1,.07s.87.11,1.36.2,1,.22,1.54.35,1,.31,1.51.47.91.35,1.28.5.66.32.87.42l.33.17-.35-.11-.92-.3c-.38-.13-.83-.26-1.3-.41s-1-.29-1.5-.42-1-.27-1.52-.38-.93-.23-1.33-.3l-.94-.2Zm9.39,23.11,0-.32c0-.2.05-.5.09-.84s.06-.76.1-1.2.05-.9.06-1.37,0-.93,0-1.36,0-.85,0-1.2,0-.65,0-.85L26,40l.08.31a8.1,8.1,0,0,1,.17.84c.05.35.1.76.13,1.2s0,.92,0,1.39-.06.95-.11,1.39-.13.85-.2,1.19a8.12,8.12,0,0,1-.21.83ZM23,30.45c-.15-.14-.28-.26-.37-.33L22.45,30l.18.07a2.55,2.55,0,0,1,.45.24,2.76,2.76,0,0,1,.56.45,4.78,4.78,0,0,1,.52.65,5.15,5.15,0,0,1,.35.76,3.55,3.55,0,0,1,.16.71,2.15,2.15,0,0,1,0,.5l0,.2,0-.19c0-.12-.08-.28-.13-.48a4.9,4.9,0,0,0-.25-.64,4,4,0,0,0-.36-.68,5.19,5.19,0,0,0-.45-.64C23.26,30.77,23.12,30.58,23,30.45Zm-.73,14.72.11-.27.3-.68.45-.93c.17-.34.35-.7.52-1.06s.39-.7.56-1,.36-.64.5-.9l.38-.64.16-.24,0,.28c0,.18-.08.43-.15.74s-.2.63-.33,1-.31.73-.49,1.11-.41.71-.62,1-.44.6-.63.84-.38.42-.51.55ZM19,44.58l.07-.18c.06-.12.12-.29.22-.48s.2-.42.34-.65l.41-.73.45-.7c.15-.23.3-.42.42-.6s.25-.31.32-.41l.13-.15-.07.18c-.05.12-.12.29-.22.48s-.2.42-.33.65-.27.48-.42.73-.3.48-.45.7-.3.42-.42.6-.24.31-.32.41Zm-4.71-4,.11-.22a6,6,0,0,1,.31-.57c.15-.23.32-.5.53-.77s.44-.54.69-.81.53-.5.79-.72a8.74,8.74,0,0,1,.74-.55c.23-.15.43-.25.57-.33l.22-.11-.19.16-.48.43c-.21.17-.43.39-.67.62a10.15,10.15,0,0,0-.74.73c-.25.25-.49.51-.71.76s-.43.48-.59.69l-.42.5Zm-.72-.74.22-.47a4,4,0,0,1,.28-.52c.11-.2.24-.43.39-.66a15.7,15.7,0,0,1,1.21-1.52,17.4,17.4,0,0,1,1.69-1.46,16.48,16.48,0,0,1,1.93-1.11,13.19,13.19,0,0,1,1.83-.65,6.82,6.82,0,0,1,.75-.16c.23,0,.42-.08.59-.1l.51,0-.48.17a5.23,5.23,0,0,0-.55.19,7.5,7.5,0,0,0-.7.29,12.75,12.75,0,0,0-1.69.81,15.51,15.51,0,0,0-1.81,1.14,14.72,14.72,0,0,0-1.66,1.34,11.75,11.75,0,0,0-1.32,1.33c-.19.2-.36.39-.5.56l-.37.46Zm-3.07-5.51.17-.36a3.21,3.21,0,0,1,.21-.41,5.19,5.19,0,0,1,.32-.51,8.59,8.59,0,0,1,1-1.15,10.58,10.58,0,0,1,1.36-1.08,9.67,9.67,0,0,1,1.56-.75,7.11,7.11,0,0,1,1.46-.37,4.82,4.82,0,0,1,.6-.07,3.68,3.68,0,0,1,.46,0H18l-.4.05a3.33,3.33,0,0,0-.45.08l-.57.12a10,10,0,0,0-2.88,1.22,10,10,0,0,0-1.34,1,9,9,0,0,0-1,1.05c-.14.17-.26.32-.36.47s-.2.26-.27.37Zm-.62-7.07.1-.18c.07-.11.16-.28.29-.46s.3-.39.49-.6.41-.41.64-.61.48-.37.71-.53.48-.27.68-.38.38-.16.5-.21l.19-.07-.16.13-.44.31-.6.46c-.22.16-.45.35-.67.54s-.45.38-.65.56-.39.36-.54.52-.3.28-.39.38Z"/><path class="cls-8" d="M52,48.84a28.14,28.14,0,0,0,5.36-.23,7.33,7.33,0,0,0,2.14-.93l-2-4.09,2.77,3.53c2.41-1.85,4.52-5,6.28-8.46a14.34,14.34,0,0,0-.81-1.43,15,15,0,0,0-1.11-1.47,13.24,13.24,0,0,1,1.48,1.15c.34.29.65.6.89.85,1.06-2.18,2-4.43,2.75-6.52l-1.68-2,2,1.22c2-5.58-1.22-8.45-10.59-11.21A27.49,27.49,0,0,0,51.71,18a13.18,13.18,0,0,0-6.17,1.29c.31.3.6.62.88.95.18-.05.43-.12.75-.19a17.6,17.6,0,0,1,2.88-.4,31.88,31.88,0,0,1,8.6.74,21.57,21.57,0,0,1,2.26.63,21.88,21.88,0,0,1,2.1.84,17.4,17.4,0,0,1,3.4,2.09,14.18,14.18,0,0,1,2,2c.22.25.37.47.49.61l.16.23-.18-.21a5.72,5.72,0,0,0-.53-.58,13.33,13.33,0,0,0-2.11-1.8,17.46,17.46,0,0,0-3.46-1.82c-.66-.25-1.37-.48-2.09-.68s-1.46-.34-2.21-.46c-1-.16-2.1-.26-3.12-.32.69.11,1.34.24,1.87.36.79.19,1.31.34,1.31.34s-.53-.09-1.33-.18a23.46,23.46,0,0,0-3-.16l-.79,0a22.77,22.77,0,0,1,2.9.64c.5.14.91.28,1.2.38l.45.17-.47-.1c-.29-.06-.72-.13-1.24-.2A22.93,22.93,0,0,0,52.55,22a22.63,22.63,0,0,0-3.7.44l-.88.2a19.81,19.81,0,0,1,1.27,3.19c.1.31.21.6.32.87a2.46,2.46,0,0,1,.22-.34,4.2,4.2,0,0,1,.66-.71c.21-.17.35-.26.35-.26s-.1.14-.23.36a4.33,4.33,0,0,0-.34.83s0,.06,0,.09a3.45,3.45,0,0,1,.28-.26,6.66,6.66,0,0,1,1.24-.86,6.32,6.32,0,0,1,.6-.29s-.19.19-.44.49a6.39,6.39,0,0,0-.75,1.17c-.09.18-.16.36-.23.54L52,26.77l-.54.9L60,25.36a17,17,0,0,0-3.58,2.14l2.19-.56L56.67,28a12.55,12.55,0,0,1,1.64-.11,11.52,11.52,0,0,1,1.76.16,11.14,11.14,0,0,1,3.25,1.11,11.74,11.74,0,0,1,2.41,1.71,11.08,11.08,0,0,1,1.38,1.55c.15.2.25.37.32.48l.11.17-.12-.16c-.09-.1-.2-.26-.37-.44a10,10,0,0,0-1.49-1.4,11,11,0,0,0-2.46-1.43,11.26,11.26,0,0,0-1.52-.5A11,11,0,0,0,60,28.9a10.93,10.93,0,0,0-1.62,0,10.21,10.21,0,0,0-4.1,1.22c-.23.12-.43.24-.62.36a7.46,7.46,0,0,0-1.2,3.61c0,.53-.08,1-.13,1.37a6.55,6.55,0,0,0,.88.88,6.91,6.91,0,0,0,1.3.85,7.19,7.19,0,0,1-1.56-.43,6.29,6.29,0,0,1-.78-.36c-.41,1.84-1.1,1.72-1.49,4.49C50.3,43.48,51.35,47,52,48.84Zm7.46-29-.51-.12-.59-.14-.77-.16c-.56-.12-1.22-.21-1.93-.31s-1.47-.16-2.23-.19-1.52-.05-2.24,0-1.38.06-1.95.12l-.78.08-.6.08-.52.07.51-.14.59-.13c.23-.05.49-.1.77-.14a19.51,19.51,0,0,1,2-.23c.72,0,1.49,0,2.26,0s1.54.13,2.26.24a18.42,18.42,0,0,1,1.93.41c.28.07.53.15.76.22l.57.19Zm-6.31,3.28h-.19l-.49,0-.69,0c-.26,0-.53,0-.79.06l-.79.07c-.25,0-.49.05-.69.09l-.49.06-.19,0,.17-.09c.11,0,.27-.12.47-.18s.43-.13.68-.18.53-.09.81-.12.55,0,.81,0a6.83,6.83,0,0,1,.71.07c.2,0,.37.07.49.1Zm8.51,1.72h-.29c-.18,0-.44,0-.75,0s-.67,0-1.06.08-.79.1-1.19.18-.81.18-1.18.29-.71.22-1,.34l-.7.28-.27.11.24-.16a4.5,4.5,0,0,1,.65-.4,7.13,7.13,0,0,1,1-.44,11.12,11.12,0,0,1,1.2-.34c.42-.07.84-.12,1.24-.15a7.4,7.4,0,0,1,1.08,0,6.45,6.45,0,0,1,.76.11ZM62.51,28a7.89,7.89,0,0,1,.88.31,9.69,9.69,0,0,1,1,.49c.3.19.6.41.87.62a8.78,8.78,0,0,1,.68.64c.19.2.32.39.42.51l.14.21-.19-.16c-.11-.11-.29-.25-.5-.42s-.46-.35-.72-.55-.57-.39-.87-.57a10.4,10.4,0,0,0-.91-.51c-.3-.14-.58-.29-.83-.39S62,28,61.84,28l-.23-.1.25,0A5.25,5.25,0,0,1,62.51,28Zm5-1.44c-.24-.22-.55-.45-.87-.71s-.68-.52-1.05-.76-.73-.5-1.08-.71-.68-.42-1-.57l-.7-.38-.28-.15.3.09c.18.06.45.14.76.27s.67.29,1,.49.75.44,1.13.68.72.54,1,.81.59.56.82.8a6.66,6.66,0,0,1,.53.62l.19.24-.24-.2C68,27,67.74,26.81,67.49,26.6ZM61.07,30l-.31,0L60,29.87c-.34,0-.73,0-1.15,0a11.73,11.73,0,0,0-1.3.1,12,12,0,0,0-1.29.21c-.41.11-.79.19-1.11.3l-.78.25-.29.11.27-.16a5.85,5.85,0,0,1,.73-.38,10.69,10.69,0,0,1,1.11-.4,12.34,12.34,0,0,1,1.32-.26,10.17,10.17,0,0,1,1.34-.06,9.4,9.4,0,0,1,1.17.12,6.39,6.39,0,0,1,.8.19ZM60,37l.22.12a5.75,5.75,0,0,1,.54.35c.22.16.47.34.72.56s.51.47.77.72.47.54.68.8.37.53.52.75a5.45,5.45,0,0,1,.32.57l.11.22-.16-.19c-.1-.12-.25-.28-.42-.49s-.38-.42-.59-.67-.46-.51-.7-.76-.49-.51-.72-.74-.45-.45-.65-.63l-.46-.44Zm-3.27-3.22c-.25-.12-.49-.21-.7-.29s-.4-.15-.55-.19L55,33.16l.52,0c.16,0,.36,0,.58.1a7,7,0,0,1,.76.16,13.19,13.19,0,0,1,1.83.65,16.48,16.48,0,0,1,1.93,1.11,16.15,16.15,0,0,1,1.68,1.46,13.13,13.13,0,0,1,1.21,1.52,7.28,7.28,0,0,1,.4.66,5.68,5.68,0,0,1,.28.52l.21.47-.32-.4c-.09-.13-.22-.28-.36-.46s-.31-.36-.5-.56a11.75,11.75,0,0,0-1.32-1.33,14,14,0,0,0-1.67-1.34,14.62,14.62,0,0,0-1.8-1.14A13.38,13.38,0,0,0,56.69,33.81Zm-.94,8.06.1.2.25.52c.1.23.23.47.35.75s.27.56.42.84.27.58.41.84.25.53.37.74l.26.52.1.21-.15-.17c-.09-.11-.23-.26-.37-.46a7.75,7.75,0,0,1-.46-.7c-.16-.26-.31-.54-.46-.83s-.27-.6-.38-.88-.19-.56-.26-.79a4.18,4.18,0,0,1-.14-.57Zm-3.06-2.46.15.24.39.64c.14.26.31.57.5.9s.36.69.55,1,.35.72.53,1.06.31.66.45.93l.3.68.11.27-.22-.2c-.12-.13-.3-.32-.5-.55s-.41-.53-.64-.84l-.62-1c-.17-.38-.34-.75-.49-1.11l-.32-1c-.07-.31-.12-.56-.16-.74ZM52.08,47a7.34,7.34,0,0,1-.4-.77,9.84,9.84,0,0,1-.41-1.17A12,12,0,0,1,51,43.7a11.37,11.37,0,0,1,0-1.43,7.83,7.83,0,0,1,.19-1.22,7,7,0,0,1,.25-.84l.12-.3-.06.32c0,.2-.08.5-.13.85s-.06.77-.09,1.21a13,13,0,0,0,.05,1.38,11.71,11.71,0,0,0,.2,1.36,10.84,10.84,0,0,0,.31,1.17c.1.34.2.62.28.82l.12.3Z"/><path class="cls-10" d="M6.5,28.84c0,3.74,1.65,8.39,4.42,12.45s6.13,6.87,9.47,8.07c0,0,2.09,1,2.87,1.39.55.15,1.18.29,1.82.42a10,10,0,0,1-1.61.9,20,20,0,0,1-2.68.9,14.91,14.91,0,0,1-2.69.38,1,1,0,0,0-.44,1.88,16.57,16.57,0,0,0,3.78,1.41,17.16,17.16,0,0,0,3,.3,9.17,9.17,0,0,0,5.43-2,18.79,18.79,0,0,0,3.27-3.42,71.47,71.47,0,0,0,3.23,20,26.19,26.19,0,0,0,1.88,4.27s1.06,1.69,2.22,3.18a29.77,29.77,0,0,0,5.67,5.93l1,.62a5.58,5.58,0,0,0,.52.21l.27.11a7.4,7.4,0,0,0,2.8.56,6.59,6.59,0,0,0,5.2-2.49,3.28,3.28,0,0,0,.8-2.73c-.37-1.41-1.64-2.86-3.12-2.86a2.2,2.2,0,0,0-1.79.94A5.28,5.28,0,0,0,51,80.75a1.88,1.88,0,0,1-.18.45,1.17,1.17,0,0,1-.58.08c-.59,0-1.37-.73-2.38-2.22l-.8-1a19.39,19.39,0,0,1-2.49-6.72l-.17-.9a43.43,43.43,0,0,1-.54-6c0-.23,0-.37,0-.62A85.84,85.84,0,0,1,44.77,50a8.6,8.6,0,0,0,1.45,2.6,4.17,4.17,0,0,1,.28.38,9.59,9.59,0,0,0,7.28,3.93h1a14.76,14.76,0,0,0,5.72-1.7,1,1,0,0,0,.51-1.11,1,1,0,0,0-1-.77,15.2,15.2,0,0,1-4-.73l-.94-.34a10.62,10.62,0,0,1-2.14-1.16,3,3,0,0,1-1-1,29.26,29.26,0,0,0,4.84-.4C62,48.94,66.72,42.6,71,30.84a7.35,7.35,0,0,0,0-6.06c-1.33-2.64-4.69-4.58-11.22-6.51a28.74,28.74,0,0,0-8-1.28,13.46,13.46,0,0,0-7.1,1.68,14.22,14.22,0,0,0-11,0A12.21,12.21,0,0,0,27,17.11a30.82,30.82,0,0,0-7.85,1.16c-4.15,1.11-6.86,2.21-8.81,3.58A8.15,8.15,0,0,0,6.5,28.84ZM52,48.84c-.62-1.81-1.67-5.36-1.32-7.94.39-2.77,1.08-2.65,1.49-4.49a6.29,6.29,0,0,0,.78.36,7.19,7.19,0,0,0,1.56.43,6.91,6.91,0,0,1-1.3-.85,6.55,6.55,0,0,1-.88-.88c.05-.39.1-.84.13-1.37a7.46,7.46,0,0,1,1.2-3.61c.19-.12.39-.24.62-.36a10.21,10.21,0,0,1,4.1-1.22,10.93,10.93,0,0,1,1.62,0,11,11,0,0,1,1.61.27,11.26,11.26,0,0,1,1.52.5,11,11,0,0,1,2.46,1.43,10,10,0,0,1,1.49,1.4c.17.18.28.34.37.44l.12.16-.11-.17c-.07-.11-.17-.28-.32-.48a11.08,11.08,0,0,0-1.38-1.55,11.74,11.74,0,0,0-2.41-1.71,11.14,11.14,0,0,0-3.25-1.11,11.52,11.52,0,0,0-1.76-.16,12.55,12.55,0,0,0-1.64.11l1.95-1.09-2.19.56A17,17,0,0,1,60,25.36l-8.58,2.31.54-.9-1.07.65c.07-.18.14-.36.23-.54a6.39,6.39,0,0,1,.75-1.17c.25-.3.44-.49.44-.49a6.32,6.32,0,0,0-.6.29,6.66,6.66,0,0,0-1.24.86,3.45,3.45,0,0,0-.28.26s0-.06,0-.09a4.33,4.33,0,0,1,.34-.83c.13-.22.23-.36.23-.36s-.14.09-.35.26a4.2,4.2,0,0,0-.66.71,2.46,2.46,0,0,0-.22.34c-.11-.27-.22-.56-.32-.87A19.81,19.81,0,0,0,48,22.6l.88-.2a22.63,22.63,0,0,1,3.7-.44,22.93,22.93,0,0,1,3.77.18c.52.07,1,.14,1.24.2l.47.1-.45-.17c-.29-.1-.7-.24-1.2-.38a22.77,22.77,0,0,0-2.9-.64l.79,0a23.46,23.46,0,0,1,3,.16c.8.09,1.33.18,1.33.18s-.52-.15-1.31-.34c-.53-.12-1.18-.25-1.87-.36,1,.06,2.07.16,3.12.32.75.12,1.49.28,2.21.46s1.43.43,2.09.68a17.46,17.46,0,0,1,3.46,1.82A13.33,13.33,0,0,1,68.37,26a5.72,5.72,0,0,1,.53.58l.18.21-.16-.23c-.12-.14-.27-.36-.49-.61a14.18,14.18,0,0,0-2-2A17.4,17.4,0,0,0,63,21.85a21.88,21.88,0,0,0-2.1-.84,21.57,21.57,0,0,0-2.26-.63,31.88,31.88,0,0,0-8.6-.74,17.6,17.6,0,0,0-2.88.4c-.32.07-.57.14-.75.19-.28-.33-.57-.65-.88-.95A13.18,13.18,0,0,1,51.71,18a27.49,27.49,0,0,1,7.75,1.24C68.83,22,72,24.86,70.05,30.44l-2-1.22,1.68,2C69,33.33,68.07,35.58,67,37.76c-.24-.25-.55-.56-.89-.85a13.24,13.24,0,0,0-1.48-1.15,15,15,0,0,1,1.11,1.47,14.34,14.34,0,0,1,.81,1.43c-1.76,3.45-3.87,6.61-6.28,8.46l-2.77-3.53,2,4.09a7.33,7.33,0,0,1-2.14.93A28.14,28.14,0,0,1,52,48.84Zm-3.42,2.69s-.25-.26-.59-.68a11.09,11.09,0,0,1-1.87-3.38c-.07-.21-.12-.39-.17-.52a2.42,2.42,0,0,1,2.07-1h0c.12.33.36,1,.66,1.64a19.61,19.61,0,0,0,.93,1.73s-.17-.56-.33-1.25c2.69,6.21,10.82,6.3,10.82,6.3l-.51.25-.27,0a12.79,12.79,0,0,1-1.37.13,13.3,13.3,0,0,1-1.56.06,13.37,13.37,0,0,1-1.56,0,13.12,13.12,0,0,1-1.37-.11c-.4,0-.74-.08-1-.12l-.38,0,.34.17a9.13,9.13,0,0,0,.94.36,14.13,14.13,0,0,0,1.38.33c.51.06,1.07.11,1.63.12s.84,0,1.24-.1a11.09,11.09,0,0,1-3.44.59C49.53,56,47,52.41,46,50.31l.43.62a13,13,0,0,0,1.36,1.53,12.29,12.29,0,0,0,1.59,1.27,11.84,11.84,0,0,0,1.53.87c.24.11.45.2.65.27a4.83,4.83,0,0,0,.5.19l.45.14L52.05,55l-.48-.23a6.24,6.24,0,0,1-.61-.33,10.72,10.72,0,0,1-1.42-1,13,13,0,0,1-1.42-1.36A12.67,12.67,0,0,1,47,50.55a13.94,13.94,0,0,1-.66-1.24l.16.2A10.89,10.89,0,0,0,47.85,51C48.26,51.32,48.55,51.53,48.55,51.53Zm-18.32-6.6c.07-.39.2-1.07.39-1.75a21.34,21.34,0,0,1,.68-2A21.08,21.08,0,0,0,30.16,43c-.07.13-.14.25-.2.38l.06-.31c.13-.33.29-.71.45-1.15s.27-.72.41-1.11.29-.81.42-1.25.3-.88.43-1.34.28-.93.41-1.42.21-1,.28-1.47a8.22,8.22,0,0,0,.06-1.48,6.25,6.25,0,0,0-.65-2.54,5.23,5.23,0,0,0-1.09-1.46,3.21,3.21,0,0,0-.4-.32l-.14-.1.11.14c.07.09.16.23.28.4a7,7,0,0,1,.71,1.56c0,.13.07.27.11.41l-.14-.19a3.77,3.77,0,0,0-.63-.53l-.59-.32a4.73,4.73,0,0,1-.43-.2l-.18-.07.09.17c.06.1.16.23.29.4l.2.2a.64.64,0,0,0-.4.24.49.49,0,0,0-.11.23,1.94,1.94,0,0,1-.13-.42,1.37,1.37,0,0,1-.05-.21,1,1,0,0,0-.08.21,2.15,2.15,0,0,0-.07.59,2.69,2.69,0,0,0,.24.84,5,5,0,0,0,.58.77,8.48,8.48,0,0,1,.6.62,2,2,0,0,1,.38.59,1.2,1.2,0,0,1,.12.5.82.82,0,0,1,0,.22,1.12,1.12,0,0,0,.14-.19,1.35,1.35,0,0,0,.11-.61,2.37,2.37,0,0,0-.27-.83,6.51,6.51,0,0,0-.59-.75l-.1-.1a.76.76,0,0,0,.79-.23.16.16,0,0,0,0-.07,2.19,2.19,0,0,1,.22.47,2.39,2.39,0,0,1,.14.44.32.32,0,0,1,0,.09v.06a10.31,10.31,0,0,1-.13,1.33c0,.14,0,.28-.08.42a13,13,0,0,1-1.23,2.26l-.29-1.42L29.57,38v-.07c-.1-.35-.2-.72-.28-1.1s-.2-.74-.28-1.09-.17-.68-.23-1-.14-.53-.18-.69l-.08-.27-.05.27c0,.18-.05.43-.06.73s0,.64,0,1q0,.34.12.72a14.25,14.25,0,0,1-.45-2.24,14.69,14.69,0,0,1-.09-2.8l.15-.47A6.76,6.76,0,0,1,28.65,30a6.1,6.1,0,0,1,.67-1,10.29,10.29,0,0,1,.83-.92l.89-.89a10.51,10.51,0,0,0,1.48-1.75,4.72,4.72,0,0,0,.68-1.5c0-.19.07-.34.08-.44v-.16s-.09.2-.28.53a6.58,6.58,0,0,1-.94,1.22l-.66.63c.05-.1.11-.2.15-.29.11-.27.2-.52.27-.74s.09-.42.11-.55l0-.22-.14.17c-.07.11-.19.26-.32.44s-.27.39-.44.61-.15.24-.23.35c.14-.39.3-.82.49-1.28s.38-.65.57-.95.45-.73.66-1,.36-.56.48-.73l.18-.28-.27.19-.53.44a7.2,7.2,0,0,1,2.16-2.5,12.8,12.8,0,0,1,4.53-.78,11.51,11.51,0,0,1,5.52,1.23,11.52,11.52,0,0,1,2.74,3.85l0-.06c-.31-.42-.63-.83-.95-1.2s-.67-.67-1-.93-.56-.45-.75-.58l-.3-.2.22.29c.14.18.34.43.56.74s.51.66.78,1,.58.79.85,1.22.58.83.82,1.23l.17.26-.35-.38-.65-.56-.5-.35-.2-.12.11.21.32.51.49.69.54.71c-.45-.39-.86-.75-1.2-1.1a7.05,7.05,0,0,1-.94-1.22c-.19-.33-.28-.53-.28-.53l0,.16a2.8,2.8,0,0,0,.08.44,4.89,4.89,0,0,0,.67,1.5,10.13,10.13,0,0,0,1.49,1.75l.88.89a9,9,0,0,1,.83.92,5.53,5.53,0,0,1,.67,1,6.48,6.48,0,0,1,.38.8,11.35,11.35,0,0,1,0,3.54,14.24,14.24,0,0,1-.44,2.25c0-.21.07-.42.09-.62a11.1,11.1,0,0,0,0-1.12c0-.33-.07-.61-.1-.8l-.06-.29L49.6,34c0,.19-.08.46-.16.77a8.76,8.76,0,0,1-.22,1.06,11.58,11.58,0,0,1-.29,1.2c-.1.4-.21.81-.34,1.18-.06.22-.12.43-.19.63l-.11-1.56-.53,2c-.11-.43-.21-.88-.34-1.34s-.25-.92-.36-1.39-.23-.92-.3-1.37a10.31,10.31,0,0,1-.13-1.33.57.57,0,0,1,0-.13v0a1.8,1.8,0,0,1,.14-.44,2.19,2.19,0,0,1,.22-.47.16.16,0,0,0,0,.07.76.76,0,0,0,.79.23l-.1.1a5.58,5.58,0,0,0-.59.75,2.18,2.18,0,0,0-.27.83,1.35,1.35,0,0,0,.11.61,1.8,1.8,0,0,0,.13.19,1.3,1.3,0,0,1,0-.22,1.2,1.2,0,0,1,.12-.5,2,2,0,0,1,.38-.59,6.8,6.8,0,0,1,.6-.62,5,5,0,0,0,.58-.77A2.41,2.41,0,0,0,49,32a2.22,2.22,0,0,0-.06-.59,1,1,0,0,0-.08-.21,1.37,1.37,0,0,1-.05.21,1.94,1.94,0,0,1-.13.42.61.61,0,0,0-.11-.23.64.64,0,0,0-.4-.24l.2-.2.29-.4.08-.17-.17.07a4.73,4.73,0,0,1-.43.2l-.59.32a4.27,4.27,0,0,0-.64.53l-.09.14c0-.12.06-.25.09-.36A7,7,0,0,1,47.64,30c.12-.17.21-.31.28-.4l.11-.14-.15.1a3.28,3.28,0,0,0-.39.32A5,5,0,0,0,46.4,31.3a6.25,6.25,0,0,0-.65,2.54,8.22,8.22,0,0,0,.06,1.48c.07.5.17,1,.28,1.47s.27,1,.41,1.42.29.9.43,1.34.28.85.42,1.25.28.77.41,1.11c.18.49.36.92.5,1.27s.19,1.09.26,1.78a4,4,0,0,0-.53,0h0a3.71,3.71,0,0,0-2.06.63l-.31-1.23-.28,1.1L45,42.76l-.15,1.8c0-.48-.08-.93-.12-1.34a28.64,28.64,0,0,0-.43-2.87s-.08,1.16-.14,2.89c0,.43,0,.9,0,1.39s0,1,0,1.55L44,47.84c0,.57,0,1.14,0,1.71s0,1.13-.05,1.69C43.15,55.73,42.33,64,43.59,71l0,.07,0,0a27.19,27.19,0,0,0,1,3.88,2.89,2.89,0,0,0-.39,0c-.18,0-.39.08-.62.14s-.44.18-.66.29-.4.28-.58.43a5.71,5.71,0,0,0-.42.47c-.1.16-.18.29-.23.39l-.06.16.15-.07a3.43,3.43,0,0,1,.39-.2l.19-.12,1.75,1.84-1.2-2.14a3.9,3.9,0,0,1,.35-.19l.23-.15.36.17,0-.39a5.15,5.15,0,0,1,.45-.28,2.68,2.68,0,0,1,.32-.22,15.82,15.82,0,0,0,2,3.92l-.36.09a3.32,3.32,0,0,0-.53.33,3.57,3.57,0,0,0-.38.49,2.55,2.55,0,0,0-.18.5,2.91,2.91,0,0,0,0,.38l0,.15.1-.11a2.26,2.26,0,0,1,.23-.26l.13-.16,1.47,1.27-1-1.67a.27.27,0,0,1,.08-.07l.92.5-.49-.88a2.47,2.47,0,0,1,.29-.22,8.44,8.44,0,0,0,2.28,2.56A1.29,1.29,0,0,0,49,82a2.24,2.24,0,0,0-.44.52,3.21,3.21,0,0,0-.19.63,5,5,0,0,0,0,.56c0,.16.08.28.11.37l.06.14.07-.14a3.12,3.12,0,0,1,.14-.34,1.27,1.27,0,0,1,.08-.23l.67,0L49,83.05a1,1,0,0,1,.08-.14l.72.08-.44-.54h0a1.05,1.05,0,0,1,.24-.27,1.92,1.92,0,0,0,.61.11c.89,0,1.25-.24,1.46-.62,0,.21,0,.41,0,.59a5.65,5.65,0,0,0,.2.79c.09.22.18.39.24.51l.13.18v-.22a4.42,4.42,0,0,1,0-.54v-.09h.06a1.25,1.25,0,0,0,.75-.52.64.64,0,0,0,.09-.17.7.7,0,0,1-.15.09,1,1,0,0,1-.36.1.79.79,0,0,1-.33-.05l-.05,0a.17.17,0,0,1,0-.07,5.93,5.93,0,0,1,.07-.83s0-.06,0-.09l.23.39.09-.48a2.21,2.21,0,0,0,.4.46,2.41,2.41,0,0,0,.92.46,1.93,1.93,0,0,0,.71,0l.19,0,.07,0-.07,0a1,1,0,0,1-.18,0,1.7,1.7,0,0,1-.59-.24,2,2,0,0,1-.65-.53,1.67,1.67,0,0,1-.44-.79,1.38,1.38,0,0,1,0-.85,1,1,0,0,1,.14-.31,1.07,1.07,0,0,1,.39-.07c.89,0,1.86,1,2.16,2.12.33,1.28-1.79,4-5,4A6.49,6.49,0,0,1,48.61,85c-2.71-1.31-5.31-4.39-7.43-7.36-2.49-3.49-4.79-10.16-6-18.29-.44-3.08-.72-6.09-.91-8.64l0-1.13c0-.57,0-1.14,0-1.71s0-1.12-.05-1.66,0-1.06,0-1.55,0-1,0-1.39C34,41.51,34,40.35,34,40.35s-.24,1.14-.42,2.87c-.05.43-.09.9-.12,1.4,0,.2,0,.42,0,.63l-.19-.68L33,46.18A3.5,3.5,0,0,0,30.23,44.93ZM47.85,32.68a.63.63,0,0,1,0-.09.6.6,0,0,1,.06-.11l.07-.11.08-.09.1-.08a.21.21,0,0,1,.08-.06l0,0,0,0a.35.35,0,0,1,0,.12.41.41,0,0,1,0,.15.6.6,0,0,1-.08.16l-.13.11a.44.44,0,0,1-.15.05h-.16Zm-17.37.06h-.12a.48.48,0,0,1-.15,0l-.15-.1-.12-.13a1.56,1.56,0,0,1-.06-.15.26.26,0,0,1,0-.12v-.05h.05l.11,0,.12.07.12.09.11.11s.05.08.08.11a.45.45,0,0,1,.05.1l0,0ZM29.56,46a2.9,2.9,0,0,1,.66-.07,2.47,2.47,0,0,1,1.92.83,12.76,12.76,0,0,1-.68,2.12,13.11,13.11,0,0,1-1.07,2,14.11,14.11,0,0,0,1.51-1.76c.14-.2.27-.4.4-.6-.07.19-.14.4-.23.63a11.2,11.2,0,0,1-2,3.25A11,11,0,0,1,27,54.81a8.68,8.68,0,0,1-1.18.55l-.46.18.48-.14A10.53,10.53,0,0,0,27.07,55a11.76,11.76,0,0,0,3.34-2.2,10.47,10.47,0,0,0,1.15-1.26A8.91,8.91,0,0,1,24,56a8.75,8.75,0,0,1-1.32-.1,10.06,10.06,0,0,0,1.41-.27,11.22,11.22,0,0,0,1.16-.46c.32-.18.57-.34.74-.46l.27-.21-.32.09a8,8,0,0,1-.83.23A9.29,9.29,0,0,1,24,55a9.27,9.27,0,0,1-1.33.18,10.39,10.39,0,0,1-1.35.06c-.4,0-.79,0-1.12,0a17.56,17.56,0,0,1-2.06-.89S28,54.23,29.56,46ZM7.49,28.84c0-5.47,5-7.78,11.87-9.61A29.67,29.67,0,0,1,27,18.1a12,12,0,0,1,5.76,1.19,11,11,0,0,0-.92,1l-.13,0a7.51,7.51,0,0,0-.81-.21,17.91,17.91,0,0,0-2.89-.4,31.81,31.81,0,0,0-8.59.74A21.22,21.22,0,0,0,15,21.85a17.8,17.8,0,0,0-3.41,2.09,14,14,0,0,0-2,2c-.23.25-.38.47-.49.61l-.17.23.18-.21c.13-.14.29-.35.53-.58a13,13,0,0,1,2.12-1.8,17.08,17.08,0,0,1,3.45-1.82c.67-.25,1.37-.48,2.09-.68s1.47-.34,2.22-.46a32.14,32.14,0,0,1,3.72-.34,30.79,30.79,0,0,0-3.64.86c-1,.3-1.62.54-1.62.54s.66-.19,1.66-.39a31.22,31.22,0,0,1,3.7-.53l.89,0a23.5,23.5,0,0,0-2.7.61c-.5.14-.92.28-1.21.38l-.45.17.47-.1c.3-.06.73-.13,1.24-.2A23.12,23.12,0,0,1,25.36,22a22,22,0,0,1,3.6.42,3.05,3.05,0,0,0-.52,1c-.37,1-.71,2.05-1,3l0,0a6.66,6.66,0,0,0-1.24-.86c-.36-.19-.6-.29-.6-.29s.19.19.44.49a7,7,0,0,1,.75,1.17c.07.14.13.29.18.42l-1.2-.39.69.67L18.2,25.36a14.86,14.86,0,0,1,2.86,1.77c-.89-.24-1.66-.36-1.66-.36a16.85,16.85,0,0,1,2.06,1c.26.14.5.29.73.44-.29-.06-.58-.12-.88-.16a12.11,12.11,0,0,0-1.72-.12,11.75,11.75,0,0,0-1.76.16,13.67,13.67,0,0,0-1.7.44,13.48,13.48,0,0,0-1.54.67,11.47,11.47,0,0,0-2.41,1.71,10.46,10.46,0,0,0-1.38,1.55c-.15.2-.25.37-.33.48l-.11.17.13-.16c.08-.1.2-.26.37-.44a10.34,10.34,0,0,1,1.48-1.4,11.31,11.31,0,0,1,2.47-1.43,10.41,10.41,0,0,1,1.52-.5,10.82,10.82,0,0,1,1.61-.27,10.94,10.94,0,0,1,1.62,0,10.21,10.21,0,0,1,4.1,1.22,2.91,2.91,0,0,1,.35.2,8,8,0,0,1,1.21,3.74c0,.18,0,.34,0,.5l-.14.07a3.9,3.9,0,0,0-.93.72,4,4,0,0,0-.64.92,3,3,0,0,0-.18.45,2.87,2.87,0,0,1,.31-.36,3.39,3.39,0,0,1,.82-.62,3.11,3.11,0,0,1,.84-.31c.35,3,1.08,3,1.52,6.14a20.93,20.93,0,0,1-.7,7.2,32.14,32.14,0,0,1-5.1-.25,12,12,0,0,1-1.72-.71l.26-1.43-1,.92,1.78-3.72-2.6,3.32a24.24,24.24,0,0,1-6.88-7.48,11.9,11.9,0,0,1,.75-1.3,15,15,0,0,1,1.11-1.47,14.6,14.6,0,0,0-1.49,1.14L11,38l.18-.6-1,.78A24,24,0,0,1,7.83,31.9l.95-1.69-1.13.7a.78.78,0,0,0,0-.16l1.89-2.27-2,1.23C7.51,29.42,7.49,29.13,7.49,28.84Z"/><path class="cls-10" d="M14.05,38.86c.11-.2.24-.43.39-.66a15.7,15.7,0,0,1,1.21-1.52,17.4,17.4,0,0,1,1.69-1.46,16.48,16.48,0,0,1,1.93-1.11,13.19,13.19,0,0,1,1.83-.65,6.82,6.82,0,0,1,.75-.16c.23,0,.42-.08.59-.1l.51,0-.48.17a5.23,5.23,0,0,0-.55.19,7.5,7.5,0,0,0-.7.29,12.75,12.75,0,0,0-1.69.81,15.51,15.51,0,0,0-1.81,1.14,14.72,14.72,0,0,0-1.66,1.34,11.75,11.75,0,0,0-1.32,1.33c-.19.2-.36.39-.5.56l-.37.46-.32.4.22-.47A4,4,0,0,1,14.05,38.86Z"/><path class="cls-10" d="M22.65,44.22l.45-.93c.17-.34.35-.7.52-1.06s.39-.7.56-1,.36-.64.5-.9l.38-.64.16-.24,0,.28c0,.18-.08.43-.15.74s-.2.63-.33,1-.31.73-.49,1.11-.41.71-.62,1-.44.6-.63.84-.38.42-.51.55l-.21.2.11-.27Z"/><path class="cls-10" d="M56,33.52c-.21-.08-.4-.15-.55-.19L55,33.16l.52,0c.16,0,.36,0,.58.1a7,7,0,0,1,.76.16,13.19,13.19,0,0,1,1.83.65,16.48,16.48,0,0,1,1.93,1.11,16.15,16.15,0,0,1,1.68,1.46,13.13,13.13,0,0,1,1.21,1.52,7.28,7.28,0,0,1,.4.66,5.68,5.68,0,0,1,.28.52l.21.47-.32-.4c-.09-.13-.22-.28-.36-.46s-.31-.36-.5-.56a11.75,11.75,0,0,0-1.32-1.33,14,14,0,0,0-1.67-1.34,14.62,14.62,0,0,0-1.8-1.14,13.38,13.38,0,0,0-1.69-.81C56.44,33.69,56.2,33.6,56,33.52Z"/><path class="cls-10" d="M53.23,40.29c.14.26.31.57.5.9s.36.69.55,1,.35.72.53,1.06.31.66.45.93l.3.68.11.27-.22-.2c-.12-.13-.3-.32-.5-.55s-.41-.53-.64-.84l-.62-1c-.17-.38-.34-.75-.49-1.11l-.32-1c-.07-.31-.12-.56-.16-.74l0-.28.15.24Z"/><path class="cls-10" d="M41.7,19.7l-.46,0-.41,1.47-.49-1.5H39.25a9.15,9.15,0,0,0-.25,1,9.59,9.59,0,0,0-.12,1.16,8.83,8.83,0,0,1-.38-1.13,10,10,0,0,1-.2-1c-.27,0-.52,0-.77.06h-.18L36.8,20.8l-.35-1-.19,0-.9.12L35,20l.31-.15c.21-.09.5-.21.86-.33s.81-.22,1.28-.31,1-.12,1.49-.15,1,0,1.5.07.92.15,1.29.24.67.21.88.29l.32.13-.35,0C42.38,19.75,42.07,19.71,41.7,19.7Z"/><path class="cls-10" d="M43.06,23.39c-.19-.05-.4-.09-.63-.13a7.76,7.76,0,0,0-.8-.14c-.06.15-.16.39-.24.65a6.39,6.39,0,0,0-.21.9,9.17,9.17,0,0,1-.29-.91c-.06-.27-.11-.55-.14-.74A14.09,14.09,0,0,0,39.14,23l-.51,1.54L38.27,23c-.33,0-.67.05-1,.09l-.52.07-.41,2.47-.55-2.29-.08,0c-.23,0-.44.09-.62.14a3.24,3.24,0,0,0-.48.13l-.42.11.37-.23a4.6,4.6,0,0,1,.45-.23c.17-.09.37-.19.59-.28a13.45,13.45,0,0,1,1.57-.48,13.85,13.85,0,0,1,1.88-.21,14.12,14.12,0,0,1,1.88.17,13.46,13.46,0,0,1,1.58.44l.6.26a4.6,4.6,0,0,1,.45.23l.38.22-.42-.1A3.72,3.72,0,0,0,43.06,23.39Z"/><path class="cls-10" d="M34.68,28.64c.21-.08.44-.17.7-.25a14.75,14.75,0,0,1,1.8-.45,20.12,20.12,0,0,1,2.12-.19c.73,0,1.45.08,2.12.16s1.29.26,1.81.41l.7.24.53.21.45.21-.49-.09-.55-.1-.12,0-.52,1.51-.08-1.59h0a10,10,0,0,0-1.07-.14l-.69,3.2-.26-3.28c-.44,0-.9,0-1.36,0l-.34,3-.57-3c-.37,0-.73,0-1.09,0l-.39,1-.46-1c-.47,0-.91.1-1.3.17l-.17,1.68L35,28.82l-.28.05L34.2,29l-.48.09.44-.22Z"/><path class="cls-10" d="M35.84,34.52c.46-.11,1-.21,1.6-.3s1.23-.11,1.87-.13,1.27,0,1.86.1,1.14.18,1.61.29.84.23,1.11.31l.41.15-.44,0c-.27,0-.67-.06-1.14-.08l-.79-.05-.39,1.48-.46-1.51c-.51,0-1,0-1.57,0l-.41,3.3-.47-3.3h-.5l-.26,1.08-.31-1.05h-.07l-.66,0-.5,1.62-.4-1.55h0L34.76,35l-.43,0,.41-.16C35,34.77,35.38,34.65,35.84,34.52Z"/><path class="cls-10" d="M41.87,40.69c-.22,0-.47,0-.73,0l-.56,2.72-.35-2.74c-.34,0-.69,0-1,0s-.91,0-1.34,0l-.55,1.64L37,40.68l-.47,0-.9.07-.35,0,.32-.15c.2-.08.5-.19.86-.3s.8-.2,1.26-.29,1-.1,1.48-.12,1,0,1.49.11.9.16,1.26.26.66.22.87.29l.32.15-.35,0C42.55,40.72,42.24,40.7,41.87,40.69Z"/><path class="cls-10" d="M36.35,46.87c.37-.1.8-.19,1.27-.28s1-.1,1.48-.12,1,.05,1.48.1.9.17,1.27.26.66.22.86.3l.32.14-.35,0c-.19,0-.46,0-.78,0l-.53,2.68L41,47.15h-.43c-.39,0-.8,0-1.22,0l-.63,1.5-.27-1.5-.74,0c-.45,0-.88,0-1.25.08s-.68,0-.9.06l-.34,0,.31-.14C35.7,47.1,36,47,36.35,46.87Z"/><path class="cls-10" d="M36.47,53.49c.33-.09.72-.18,1.14-.26s.88-.09,1.33-.11.92,0,1.34.09.81.16,1.14.25.59.21.78.28l.28.13h-.31c-.2,0-.48,0-.81,0s-.64,0-1,0l-.44.93-.45-.95H39c-.39,0-.77,0-1.13,0l-.55,2.79-.37-2.76-.36,0c-.34,0-.62,0-.81,0h-.32l.29-.14C35.88,53.71,36.15,53.6,36.47,53.49Z"/><path class="cls-10" d="M37,60.13a9.39,9.39,0,0,1,1-.24c.36,0,.76-.09,1.15-.11s.78,0,1.15.09.7.15,1,.23.51.19.66.26l.24.12h-.27c-.16,0-.41,0-.69,0l-.51,0-.53,3.11-.4-3.12c-.21,0-.42,0-.63,0s-.45,0-.67,0L38,61.78l-.39-1.31a5.6,5.6,0,0,0-.6,0l-.7,0h-.27l.24-.13Z"/><path class="cls-10" d="M38.06,66.32l.81-.33c.3-.08.63-.16,1-.23s.68-.05,1-.05.62.05.87.09l.6.16.22.08-.23,0c-.15,0-.36,0-.6.08l-.62.08,0,2.28-.9-2.16-.27,0a3.4,3.4,0,0,0-.46.06l-.19,1.12-.67-1-.45.08-.6.08-.23,0,.19-.14Z"/><path class="cls-10" d="M39.66,71.72c.17-.13.38-.27.61-.42s.51-.24.78-.35.56-.14.82-.19a7.06,7.06,0,0,1,.74-.05c.22,0,.4,0,.53.05l.19,0-.18.08a5.12,5.12,0,0,0-.48.19l-.53.18.28,1.7-.85-1.5-.31.12a7.32,7.32,0,0,0-.75.25h0l.71,2.81L39.93,72l-.09,0-.5.14-.19,0,.13-.16C39.37,72,39.5,71.86,39.66,71.72Z"/><path class="cls-10" d="M54.74,81.39a4.31,4.31,0,0,0-.3-.34,4,4,0,0,0-.34-.38,3,3,0,0,0-.31-.4,4.15,4.15,0,0,0-.28-.36,3.22,3.22,0,0,0-.21-.29l-.07-.12h.14l.36.1a4.08,4.08,0,0,1,.45.24,5.06,5.06,0,0,1,.43.39,5.7,5.7,0,0,1,.31.5,4.6,4.6,0,0,1,.16.49c0,.15,0,.28,0,.36l0,.15-.1-.1C54.93,81.58,54.85,81.49,54.74,81.39Z"/><path class="cls-10" d="M45.39,37.2a10.63,10.63,0,0,1-.26-1.71,6.13,6.13,0,0,1,0-1.21c0-.29.08-.45.08-.45a4,4,0,0,0,0,.45,8.4,8.4,0,0,0,.08,1.2,12.62,12.62,0,0,0,.35,1.65c.17.59.38,1.22.6,1.85s.45,1.25.66,1.84.39,1.14.55,1.61.28.88.36,1.15L48,44l-.19-.41c-.11-.27-.29-.65-.47-1.11s-.42-1-.65-1.59L46,39.08C45.75,38.45,45.55,37.81,45.39,37.2Z"/><path class="cls-10" d="M32.13,39c.1-.31.18-.69.28-1.08s.18-.82.25-1.25.13-.85.16-1.26.07-.78.08-1.11,0-.6,0-.8v-.3l.06.3a7.56,7.56,0,0,1,.1.79,8.26,8.26,0,0,1,0,1.14c0,.41-.06.86-.12,1.3s-.19.87-.3,1.27a8,8,0,0,1-.39,1.06,6.14,6.14,0,0,1-.35.72l-.15.26.09-.28C32,39.62,32,39.35,32.13,39Z"/><path class="cls-10" d="M60.72,37.5c.22.16.47.34.72.56s.51.47.77.72.47.54.68.8.37.53.52.75a5.45,5.45,0,0,1,.32.57l.11.22-.16-.19c-.1-.12-.25-.28-.42-.49s-.38-.42-.59-.67-.46-.51-.7-.76-.49-.51-.72-.74-.45-.45-.65-.63l-.46-.44L60,37l.22.12A5.75,5.75,0,0,1,60.72,37.5Z"/><path class="cls-10" d="M60,29.87c-.34,0-.73,0-1.15,0a11.73,11.73,0,0,0-1.3.1,12,12,0,0,0-1.29.21c-.41.11-.79.19-1.11.3l-.78.25-.29.11.27-.16a5.85,5.85,0,0,1,.73-.38,10.69,10.69,0,0,1,1.11-.4,12.34,12.34,0,0,1,1.32-.26,10.17,10.17,0,0,1,1.34-.06,9.4,9.4,0,0,1,1.17.12,6.39,6.39,0,0,1,.8.19l.3.09-.31,0Z"/><path class="cls-10" d="M66.62,25.89c-.33-.26-.68-.52-1.05-.76s-.73-.5-1.08-.71-.68-.42-1-.57l-.7-.38-.28-.15.3.09c.18.06.45.14.76.27s.67.29,1,.49.75.44,1.13.68.72.54,1,.81.59.56.82.8a6.66,6.66,0,0,1,.53.62l.19.24-.24-.2c-.14-.13-.36-.31-.61-.52S66.94,26.15,66.62,25.89Z"/><path class="cls-10" d="M52.44,23.17l-.69,0c-.26,0-.53,0-.79.06l-.79.07c-.25,0-.49.05-.69.09l-.49.06-.19,0,.17-.09c.11,0,.27-.12.47-.18s.43-.13.68-.18.53-.09.81-.12.55,0,.81,0a6.83,6.83,0,0,1,.71.07c.2,0,.37.07.49.1l.18.05h-.19Z"/><path class="cls-10" d="M56.1,42.59c.1.23.23.47.35.75s.27.56.42.84.27.58.41.84.25.53.37.74l.26.52.1.21-.15-.17c-.09-.11-.23-.26-.37-.46a7.75,7.75,0,0,1-.46-.7c-.16-.26-.31-.54-.46-.83s-.27-.6-.38-.88-.19-.56-.26-.79a4.18,4.18,0,0,1-.14-.57l0-.22.1.2Z"/><path class="cls-10" d="M51.27,45.1A12,12,0,0,1,51,43.7a11.37,11.37,0,0,1,0-1.43,7.83,7.83,0,0,1,.19-1.22,7,7,0,0,1,.25-.84l.12-.3-.06.32c0,.2-.08.5-.13.85s-.06.77-.09,1.21a13,13,0,0,0,.05,1.38,11.71,11.71,0,0,0,.2,1.36,10.84,10.84,0,0,0,.31,1.17c.1.34.2.62.28.82l.12.3L52.08,47a7.34,7.34,0,0,1-.4-.77A9.84,9.84,0,0,1,51.27,45.1Z"/><path class="cls-10" d="M25.88,46.3c0-.35.06-.76.1-1.2s.05-.9.06-1.37,0-.93,0-1.36,0-.85,0-1.2,0-.65,0-.85L26,40l.08.31a8.1,8.1,0,0,1,.17.84c.05.35.1.76.13,1.2s0,.92,0,1.39-.06.95-.11,1.39-.13.85-.2,1.19a8.12,8.12,0,0,1-.21.83l-.09.31,0-.32C25.82,46.94,25.84,46.64,25.88,46.3Z"/><path class="cls-10" d="M23,30.45c-.15-.14-.28-.26-.37-.33L22.45,30l.18.07a2.55,2.55,0,0,1,.45.24,2.76,2.76,0,0,1,.56.45,4.78,4.78,0,0,1,.52.65,5.15,5.15,0,0,1,.35.76,3.55,3.55,0,0,1,.16.71,2.15,2.15,0,0,1,0,.5l0,.2,0-.19c0-.12-.08-.28-.13-.48a4.9,4.9,0,0,0-.25-.64,4,4,0,0,0-.36-.68,5.19,5.19,0,0,0-.45-.64C23.26,30.77,23.12,30.58,23,30.45Z"/><path class="cls-10" d="M10.86,33.57a5.19,5.19,0,0,1,.32-.51,8.59,8.59,0,0,1,1-1.15,10.58,10.58,0,0,1,1.36-1.08,9.67,9.67,0,0,1,1.56-.75,7.11,7.11,0,0,1,1.46-.37,4.82,4.82,0,0,1,.6-.07,3.68,3.68,0,0,1,.46,0H18l-.4.05a3.33,3.33,0,0,0-.45.08l-.57.12a10,10,0,0,0-2.88,1.22,10,10,0,0,0-1.34,1,9,9,0,0,0-1,1.05c-.14.17-.26.32-.36.47s-.2.26-.27.37l-.22.33.17-.36A3.21,3.21,0,0,1,10.86,33.57Z"/><path class="cls-10" d="M14.69,39.8c.15-.23.32-.5.53-.77s.44-.54.69-.81.53-.5.79-.72a8.74,8.74,0,0,1,.74-.55c.23-.15.43-.25.57-.33l.22-.11-.19.16-.48.43c-.21.17-.43.39-.67.62a10.15,10.15,0,0,0-.74.73c-.25.25-.49.51-.71.76s-.43.48-.59.69l-.42.5-.16.19.11-.22A6,6,0,0,1,14.69,39.8Z"/><path class="cls-10" d="M19.27,43.92c.1-.19.2-.42.34-.65l.41-.73.45-.7c.15-.23.3-.42.42-.6s.25-.31.32-.41l.13-.15-.07.18c-.05.12-.12.29-.22.48s-.2.42-.33.65-.27.48-.42.73-.3.48-.45.7-.3.42-.42.6-.24.31-.32.41l-.13.15.07-.18C19.11,44.28,19.17,44.11,19.27,43.92Z"/><path class="cls-10" d="M17.7,24.44c.4,0,.87.11,1.36.2s1,.22,1.54.35,1,.31,1.51.47.91.35,1.28.5.66.32.87.42l.33.17-.35-.11-.92-.3c-.38-.13-.83-.26-1.3-.41s-1-.29-1.5-.42-1-.27-1.52-.38-.93-.23-1.33-.3l-.94-.2-.36-.08.37,0C17,24.38,17.31,24.39,17.7,24.44Z"/><path class="cls-10" d="M10.25,26.63c.14-.18.3-.39.49-.6s.41-.41.64-.61.48-.37.71-.53.48-.27.68-.38.38-.16.5-.21l.19-.07-.16.13-.44.31-.6.46c-.22.16-.45.35-.67.54s-.45.38-.65.56-.39.36-.54.52-.3.28-.39.38l-.15.14.1-.18C10,27,10.12,26.81,10.25,26.63Z"/><path class="cls-10" d="M20.44,19.22c.57-.12,1.24-.25,2-.35s1.49-.18,2.27-.23,1.55,0,2.28,0,1.4.09,2,.15,1.06.14,1.39.2l.53.1-.53,0C30,19,29.5,19,28.92,19s-1.25,0-2,0-1.5,0-2.26.06-1.54.1-2.26.18-1.38.16-1.95.25l-1.39.23-.52.09.51-.15C19.41,19.48,19.87,19.34,20.44,19.22Z"/><path class="cls-10" d="M58.33,19.59l-.77-.16c-.56-.12-1.22-.21-1.93-.31s-1.47-.16-2.23-.19-1.52-.05-2.24,0-1.38.06-1.95.12l-.78.08-.6.08-.52.07.51-.14.59-.13c.23-.05.49-.1.77-.14a19.51,19.51,0,0,1,2-.23c.72,0,1.49,0,2.26,0s1.54.13,2.26.24a18.42,18.42,0,0,1,1.93.41c.28.07.53.15.76.22l.57.19.5.19-.51-.12Z"/><path class="cls-10" d="M27.69,50.68c.16-.16.32-.38.51-.6a8,8,0,0,0,.51-.74,7.81,7.81,0,0,0,.46-.77c.12-.26.25-.5.34-.72s.17-.39.21-.52l.08-.2,0,.21a3.27,3.27,0,0,1-.1.57,5.33,5.33,0,0,1-.25.78,6.66,6.66,0,0,1-.44.83,7.57,7.57,0,0,1-.57.74,5,5,0,0,1-.61.56,3.28,3.28,0,0,1-.47.32l-.19.11.15-.16C27.4,51,27.53,50.85,27.69,50.68Z"/><path class="cls-10" d="M47.5,49.19l-.37-.43-.31-.47a4.38,4.38,0,0,1-.21-.45,1.35,1.35,0,0,1-.12-.33l0-.13.09.1c.05.07.14.16.23.27l.29.38c.11.14.22.29.34.43a3.84,3.84,0,0,0,.32.44c.11.14.2.29.28.4s.15.22.2.28l.07.12-.12-.07a2.51,2.51,0,0,1-.28-.21A3.53,3.53,0,0,1,47.5,49.19Z"/><path class="cls-10" d="M45.09,38.14c.09.19.2.4.29.64s.19.5.29.76.17.52.25.77.13.48.19.68.08.37.11.49l0,.19-.1-.17c0-.1-.14-.26-.22-.45s-.2-.4-.29-.64l-.29-.76c-.09-.26-.17-.52-.25-.77s-.14-.48-.19-.68a3.85,3.85,0,0,1-.11-.49l0-.19.1.17C44.92,37.8,45,38,45.09,38.14Z"/><path class="cls-10" d="M45.55,32.4l-.06.18v-.19a2.34,2.34,0,0,1,0-.48,4,4,0,0,1,.16-.67,5.62,5.62,0,0,1,.3-.73,7.57,7.57,0,0,1,.42-.67,4.82,4.82,0,0,1,.45-.52,4.19,4.19,0,0,1,.36-.32l.15-.1-.1.15c-.07.09-.16.23-.27.39s-.22.36-.36.56-.25.43-.36.66-.23.46-.32.68-.19.43-.25.62S45.58,32.29,45.55,32.4Z"/><path class="cls-10" d="M32.36,31.2c-.08-.15-.2-.3-.31-.47a5.71,5.71,0,0,0-.38-.52c-.12-.17-.26-.35-.39-.5s-.25-.31-.36-.43-.2-.24-.27-.31l-.09-.12.14.07a2.31,2.31,0,0,1,.34.22,3.5,3.5,0,0,1,.45.37l.45.5c.13.19.25.39.36.57a5.34,5.34,0,0,1,.23.53c.06.16.09.31.12.4l0,.15-.08-.12C32.54,31.45,32.45,31.34,32.36,31.2Z"/><path class="cls-10" d="M23.35,23.8l-.49-.15-.19-.06h.2c.12,0,.31,0,.52,0a4.53,4.53,0,0,1,.72.14,7.4,7.4,0,0,1,.79.27,7.41,7.41,0,0,1,.74.4,4.22,4.22,0,0,1,.6.43,3.29,3.29,0,0,1,.37.35l.13.15-.17-.1L26.13,25c-.18-.11-.4-.21-.63-.33l-.73-.35c-.25-.11-.51-.21-.75-.3Z"/><path class="cls-10" d="M60.59,24.85c-.31,0-.67,0-1.06.08s-.79.1-1.19.18-.81.18-1.18.29-.71.22-1,.34l-.7.28-.27.11.24-.16a4.5,4.5,0,0,1,.65-.4,7.13,7.13,0,0,1,1-.44,11.12,11.12,0,0,1,1.2-.34c.42-.07.84-.12,1.24-.15a7.4,7.4,0,0,1,1.08,0,6.45,6.45,0,0,1,.76.11l.28.07h-.29C61.16,24.84,60.9,24.85,60.59,24.85Z"/><path class="cls-10" d="M64.35,28.84c.3.19.6.41.87.62a8.78,8.78,0,0,1,.68.64c.19.2.32.39.42.51l.14.21-.19-.16c-.11-.11-.29-.25-.5-.42s-.46-.35-.72-.55-.57-.39-.87-.57a10.4,10.4,0,0,0-.91-.51c-.3-.14-.58-.29-.83-.39S62,28,61.84,28l-.23-.1.25,0a5.25,5.25,0,0,1,.65.13,7.89,7.89,0,0,1,.88.31A9.69,9.69,0,0,1,64.35,28.84Z"/></svg>